<?xml version="1.0" encoding="UTF-8" standalone="no"?>
<!-- Created with Inkscape (http://www.inkscape.org/) -->

<svg
   xmlns:dc="http://purl.org/dc/elements/1.1/"
   xmlns:cc="http://creativecommons.org/ns#"
   xmlns:rdf="http://www.w3.org/1999/02/22-rdf-syntax-ns#"
   xmlns:svg="http://www.w3.org/2000/svg"
   xmlns="http://www.w3.org/2000/svg"
   xmlns:sodipodi="http://sodipodi.sourceforge.net/DTD/sodipodi-0.dtd"
   xmlns:inkscape="http://www.inkscape.org/namespaces/inkscape"
   width="301.18109"
   height="194.8819"
   id="svg55683"
   version="1.1"
   inkscape:version="0.47 r22583"
   sodipodi:docname="New document 47.2010_07_05_21_53_21.3.svg">
  <defs
     id="defs55685">
    <inkscape:perspective
       sodipodi:type="inkscape:persp3d"
       inkscape:vp_x="0 : 526.18109 : 1"
       inkscape:vp_y="0 : 1000 : 0"
       inkscape:vp_z="744.09448 : 526.18109 : 1"
       inkscape:persp3d-origin="372.04724 : 350.78739 : 1"
       id="perspective55691" />
    <inkscape:perspective
       id="perspective55762"
       inkscape:persp3d-origin="181.5 : 95 : 1"
       inkscape:vp_z="363 : 142.5 : 1"
       inkscape:vp_y="0 : 1000 : 0"
       inkscape:vp_x="0 : 142.5 : 1"
       sodipodi:type="inkscape:persp3d" />
  </defs>
  <sodipodi:namedview
     id="base"
     pagecolor="#ffffff"
     bordercolor="#666666"
     borderopacity="1.0"
     inkscape:pageopacity="0.0"
     inkscape:pageshadow="2"
     inkscape:zoom="0.35"
     inkscape:cx="375"
     inkscape:cy="520"
     inkscape:document-units="px"
     inkscape:current-layer="layer1"
     showgrid="false"
     inkscape:window-width="755"
     inkscape:window-height="730"
     inkscape:window-x="1680"
     inkscape:window-y="27"
     inkscape:window-maximized="0" />
  <metadata
     id="metadata55688">
    <rdf:RDF>
      <cc:Work
         rdf:about="">
        <dc:format>image/svg+xml</dc:format>
        <dc:type
           rdf:resource="http://purl.org/dc/dcmitype/StillImage" />
        <dc:title></dc:title>
      </cc:Work>
    </rdf:RDF>
  </metadata>
  <g
     inkscape:label="Layer 1"
     inkscape:groupmode="layer"
     id="layer1"
     transform="translate(0,-857.48029)">
    <g
       id="g57263"
       transform="translate(0.73685286,1.7545579)">
      <g
         id="g56705">
        <g
           id="g55694"
           transform="matrix(0.77500443,0,0,0.77500443,-20.156427,843.96946)">
          <g
             id="g55696">
            <g
               id="g55698">
              <path
                 id="path55700"
                 d="m 113.75,81.229 9.009,8.167 v 29.683 l -9.009,8.167 H 94.501 l -9.009,-8.167 V 89.396 l 9.009,-8.167 h 19.249 z m -4.02,9.398 H 98.518 l -2.981,2.721 v 21.778 l 2.981,2.721 h 11.212 l 2.981,-2.721 V 93.348 l -2.981,-2.721 z"
                 style="fill:#1e1e1e" />
            </g>
            <g
               id="g55702">
              <path
                 id="path55704"
                 d="M 138.647,127.245 H 128.6 V 81.229 h 27.029 l 8.296,8.231 v 14.842 l -8.296,8.231 h -16.981 v 14.712 z m 0,-36.618 v 12.508 h 12.637 l 2.592,-2.592 v -7.324 l -2.592,-2.592 h -12.637 z"
                 style="fill:#1e1e1e" />
              <path
                 id="path55706"
                 d="m 169.763,81.229 h 31.953 v 9.398 h -21.905 v 7.907 h 19.184 v 9.396 h -19.184 v 9.917 h 21.905 v 9.398 H 169.763 V 81.229 z"
                 style="fill:#1e1e1e" />
              <path
                 id="path55708"
                 d="M 216.955,127.245 H 206.907 V 81.229 h 9.01 l 15.103,24.174 1.685,4.279 h 0.258 l -0.713,-4.343 v -24.11 h 10.047 v 46.017 h -9.009 l -15.101,-24.174 -1.688,-4.279 h -0.258 l 0.714,4.343 v 24.109 z"
                 style="fill:#1e1e1e" />
            </g>
            <g
               id="g55710">
              <path
                 id="path55712"
                 d="m 84.584,150.859 8.229,-8.233 h 17.047 l 9.332,3.179 -3.045,9.008 -8.167,-2.788 H 96.833 l -2.203,2.205 v 1.618 l 0.843,1.752 20.675,8.945 2.721,5.117 v 8.749 l -8.231,8.233 h -17.11 l -9.332,-3.178 3.045,-9.008 8.167,2.787 h 11.212 l 2.203,-2.204 v -1.619 l -0.843,-1.751 -20.675,-8.945 -2.721,-5.117 v -8.75 z"
                 style="fill:#1e1e1e" />
            </g>
            <g
               id="g55714">
              <path
                 id="path55716"
                 d="m 135.082,188.645 h -10.048 v -46.019 h 27.028 l 8.296,8.233 V 165.7 l -8.296,8.233 h -16.98 v 14.712 z m 0,-36.621 v 12.511 h 12.637 l 2.592,-2.592 v -7.327 l -2.592,-2.592 h -12.637 z"
                 style="fill:#1e1e1e" />
            </g>
            <g
               id="g55718">
              <path
                 id="path55720"
                 d="m 183.116,142.626 14.842,44.139 -9.463,3.175 -3.499,-10.306 h -14.584 l -3.175,10.306 -9.463,-3.175 14.843,-44.139 h 10.499 z m -4.277,17.499 -0.842,-4.793 h -0.26 l -0.842,4.793 -3.63,10.759 h 9.205 l -3.631,-10.759 z"
                 style="fill:#1e1e1e" />
              <path
                 id="path55722"
                 d="m 229.334,173.022 6.869,6.873 -8.749,8.749 H 208.27 l -8.296,-8.296 v -29.427 l 8.296,-8.296 H 227 l 8.296,8.296 v 8.559 h -10.045 v -4.864 l -2.595,-2.592 h -10.045 l -2.592,2.592 v 22.038 l 2.592,2.592 h 10.501 l 6.222,-6.224 z"
                 style="fill:#1e1e1e" />
              <path
                 id="path55724"
                 d="m 240.746,142.626 h 31.952 v 9.398 h -21.904 v 7.909 h 19.184 v 9.395 h -19.184 v 9.918 h 21.904 v 9.398 h -31.952 v -46.018 z"
                 style="fill:#1e1e1e" />
            </g>
            <g
               id="g55726">
              <path
                 id="path55728"
                 d="m 107.592,206.026 14.843,44.139 -9.463,3.175 -3.499,-10.306 H 94.888 l -3.175,10.306 -9.463,-3.175 14.843,-44.139 h 10.499 z m -4.277,17.499 -0.842,-4.793 h -0.26 l -0.842,4.793 -3.63,10.759 h 9.205 l -3.631,-10.759 z"
                 style="fill:#1e1e1e" />
            </g>
            <g
               id="g55730">
              <path
                 id="path55732"
                 d="m 150.378,206.026 14.842,44.139 -9.463,3.175 -3.499,-10.306 h -14.584 l -3.175,10.306 -9.463,-3.175 14.843,-44.139 h 10.499 z m -4.277,17.499 -0.842,-4.793 h -0.26 l -0.842,4.793 -3.63,10.759 h 9.205 l -3.631,-10.759 z"
                 style="fill:#1e1e1e" />
              <path
                 id="path55734"
                 d="m 205.475,246.6 -7.193,7.064 -18.277,-18.73 h -0.842 v 17.112 h -10.047 v -46.02 h 28.129 l 7.195,7.131 v 14.649 l -7.195,7.127 h -2.332 l -2.27,-1.103 -0.129,0.195 2.268,1.619 10.693,10.956 z m -26.313,-31.175 v 10.11 h 12.897 l 2.332,-2.396 v -5.313 l -2.332,-2.4 h -12.897 z"
                 style="fill:#1e1e1e" />
              <path
                 id="path55736"
                 d="m 235.943,206.026 h 10.047 v 46.02 h -10.047 v -18.602 h -15.229 v 18.602 h -10.048 v -46.02 h 10.048 v 18.02 h 15.229 v -18.02 z"
                 style="fill:#1e1e1e" />
              <path
                 id="path55738"
                 d="m 253.127,243.812 v -37.786 h 10.046 v 34.028 l 2.592,2.593 h 10.046 l 2.594,-2.593 v -34.028 h 10.046 v 37.786 l -8.296,8.233 h -18.73 l -8.298,-8.233 z"
                 style="fill:#1e1e1e" />
              <path
                 id="path55740"
                 d="m 293.446,214.26 8.229,-8.233 h 17.047 l 9.332,3.179 -3.045,9.008 -8.167,-2.788 h -11.148 l -2.202,2.205 v 1.619 l 0.842,1.751 20.676,8.945 2.721,5.117 v 8.75 l -8.231,8.233 h -17.11 l -9.332,-3.179 3.045,-9.008 8.167,2.788 h 11.213 l 2.203,-2.205 v -1.619 l -0.843,-1.751 -20.676,-8.945 -2.721,-5.117 v -8.75 z"
                 style="fill:#1e1e1e" />
            </g>
          </g>
          <g
             id="g55742">
            <polygon
               id="polygon55744"
               points="74.707,43.857 73.931,40.339 78.312,36.348 81.773,37.448 85.171,34.374 58.398,25.854 59.517,30.925 63.124,32.076 64.392,37.864 61.61,40.404 62.908,46.272 69.686,48.427 "
               style="fill:#1e1e1e" />
            <polygon
               id="polygon55746"
               points="57.949,41.189 54.388,40.055 53.107,34.267 55.863,31.759 54.749,26.701 34.041,45.602 39.211,47.268 41.977,44.732 47.62,46.536 48.434,50.256 53.854,52.009 59.253,47.089 "
               style="fill:#1e1e1e" />
            <polygon
               id="polygon55748"
               points="77.125,46.726 72.252,51.146 73.787,58.118 80.175,60.192 83.007,57.604 88.643,59.401 89.485,63.203 93.717,64.58 87.688,37.139 84.389,40.143 85.226,43.929 80.839,47.913 "
               style="fill:#1e1e1e" />
            <polygon
               id="polygon55750"
               points="52.617,69.156 53.4,72.77 49.141,76.654 45.615,75.53 41.475,79.316 68.254,87.829 67.123,82.679 63.553,81.547 62.291,75.76 65.043,73.244 63.745,67.424 56.897,65.244 "
               style="fill:#1e1e1e" />
            <polygon
               id="polygon55752"
               points="47.243,53.806 44.512,56.295 38.875,54.511 38.069,50.837 32.928,49.176 38.945,76.557 43.159,72.71 42.405,69.26 46.678,65.37 50.036,66.441 54.368,62.485 52.867,55.623 "
               style="fill:#1e1e1e" />
            <polygon
               id="polygon55754"
               points="68.688,72.413 72.299,73.561 73.569,79.35 70.786,81.889 71.908,86.974 92.541,68.133 88.227,66.733 85.546,69.175 79.905,67.376 79.115,63.782 72.731,61.72 67.4,66.581 "
               style="fill:#1e1e1e" />
          </g>
        </g>
        <text
           xml:space="preserve"
           style="font-size:55.54254913px;font-style:normal;font-variant:normal;font-weight:normal;font-stretch:normal;fill:#000000;fill-opacity:1;stroke:none;font-family:Bender;-inkscape-font-specification:Bender"
           x="-1047.271"
           y="288.39212"
           id="text55796"
           transform="matrix(0,-1,1,0,0,0)"><tspan
             sodipodi:role="line"
             id="tspan55798"
             x="-1047.271"
             y="288.39212">osaa.dk</tspan></text>
      </g>
      <g
         id="g57260">
        <rect
           style="fill:none;stroke:#000000;stroke-width:0.30417043;stroke-linecap:square;stroke-miterlimit:4;stroke-opacity:1;stroke-dasharray:none"
           id="rect56740"
           width="300.87695"
           height="194.57771"
           x="0.15208521"
           y="857.63239"
           rx="9.941682e-17" />
      </g>
    </g>
  </g>
</svg>
