<?xml version="1.0" encoding="UTF-8" standalone="no"?>
<!-- Created with Inkscape (http://www.inkscape.org/) -->

<svg
   xmlns:dc="http://purl.org/dc/elements/1.1/"
   xmlns:cc="http://creativecommons.org/ns#"
   xmlns:rdf="http://www.w3.org/1999/02/22-rdf-syntax-ns#"
   xmlns:svg="http://www.w3.org/2000/svg"
   xmlns="http://www.w3.org/2000/svg"
   xmlns:sodipodi="http://sodipodi.sourceforge.net/DTD/sodipodi-0.dtd"
   xmlns:inkscape="http://www.inkscape.org/namespaces/inkscape"
   width="372.04724"
   height="262.20471"
   id="svg2"
   version="1.1"
   inkscape:version="0.47 r22583"
   sodipodi:docname="100klip.svg">
  <defs
     id="defs4">
    <inkscape:perspective
       sodipodi:type="inkscape:persp3d"
       inkscape:vp_x="0 : 526.18109 : 1"
       inkscape:vp_y="0 : 1000 : 0"
       inkscape:vp_z="744.09448 : 526.18109 : 1"
       inkscape:persp3d-origin="372.04724 : 350.78739 : 1"
       id="perspective10" />
    <inkscape:perspective
       id="perspective3707"
       inkscape:persp3d-origin="181.5 : 95 : 1"
       inkscape:vp_z="363 : 142.5 : 1"
       inkscape:vp_y="0 : 1000 : 0"
       inkscape:vp_x="0 : 142.5 : 1"
       sodipodi:type="inkscape:persp3d" />
  </defs>
  <sodipodi:namedview
     id="base"
     pagecolor="#ffffff"
     bordercolor="#666666"
     borderopacity="1.0"
     inkscape:pageopacity="0.0"
     inkscape:pageshadow="2"
     inkscape:zoom="1.4"
     inkscape:cx="-157.50361"
     inkscape:cy="167.09213"
     inkscape:document-units="px"
     inkscape:current-layer="layer1"
     showgrid="false"
     inkscape:window-width="1680"
     inkscape:window-height="975"
     inkscape:window-x="0"
     inkscape:window-y="24"
     inkscape:window-maximized="1" />
  <metadata
     id="metadata7">
    <rdf:RDF>
      <cc:Work
         rdf:about="">
        <dc:format>image/svg+xml</dc:format>
        <dc:type
           rdf:resource="http://purl.org/dc/dcmitype/StillImage" />
        <dc:title></dc:title>
      </cc:Work>
    </rdf:RDF>
  </metadata>
  <g
     inkscape:label="Layer 1"
     inkscape:groupmode="layer"
     id="layer1"
     transform="translate(0,-790.15743)">
    <g
       id="g7812">
      <g
         transform="matrix(0,0.80443627,-0.80443627,0,1027.7091,1009.595)"
         id="g3717">
        <rect
           style="fill:none;stroke:#000000;stroke-width:1;stroke-miterlimit:4;stroke-opacity:1;stroke-dasharray:none"
           id="rect3684"
           width="68.690376"
           height="68.690376"
           x="-176.7767"
           y="159.91521"
           transform="translate(0,680.31491)" />
        <g
           id="g3687"
           transform="matrix(0.32357843,0,0,0.32357843,-202.17099,828.57757)"
           style="fill:#000000;fill-opacity:0.20952382;stroke:#000000;stroke-opacity:1">
	<polygon
   id="polygon3689"
   points="211.21,96.284 223.478,85.107 233.173,88.187 242.687,79.579 167.709,55.718 170.841,69.919 180.942,73.143 184.495,89.353 176.704,96.467 180.339,112.901 199.319,118.935 213.382,106.138 "
   style="fill:#000000;fill-opacity:0.20952382;stroke:#000000;stroke-opacity:1" />

	<polygon
   id="polygon3691"
   points="156.477,95.489 152.891,79.279 160.608,72.256 157.488,58.09 99.493,111.023 113.973,115.688 121.718,108.586 137.523,113.64 139.801,124.058 154.982,128.966 170.103,115.188 166.45,98.664 "
   style="fill:#000000;fill-opacity:0.20952382;stroke:#000000;stroke-opacity:1" />

	<polygon
   id="polygon3693"
   points="206.507,126.548 210.805,146.075 228.695,151.885 236.626,144.636 252.409,149.669 254.771,160.315 266.622,164.171 249.737,87.321 240.498,95.735 242.841,106.337 230.556,117.494 220.153,114.171 "
   style="fill:#000000;fill-opacity:0.20952382;stroke:#000000;stroke-opacity:1" />

	<polygon
   id="polygon3695"
   points="153.711,187.109 141.783,197.987 131.907,194.84 120.312,205.443 195.312,229.281 192.142,214.859 182.146,211.689 178.608,195.482 186.317,188.438 182.683,172.138 163.505,166.032 151.517,176.987 "
   style="fill:#000000;fill-opacity:0.20952382;stroke:#000000;stroke-opacity:1" />

	<polygon
   id="polygon3697"
   points="128.819,140.972 113.031,135.974 110.776,125.685 96.377,121.033 113.228,197.714 125.03,186.942 122.917,177.28 134.884,166.386 144.29,169.386 156.422,158.307 152.217,139.088 136.468,133.999 "
   style="fill:#000000;fill-opacity:0.20952382;stroke:#000000;stroke-opacity:1" />

	<polygon
   id="polygon3699"
   points="206.638,189.323 210.196,205.536 202.401,212.648 205.544,226.889 263.326,174.124 251.245,170.202 243.739,177.042 227.938,172.003 225.728,161.938 207.849,156.162 192.919,169.776 196.526,186.11 "
   style="fill:#000000;fill-opacity:0.20952382;stroke:#000000;stroke-opacity:1" />

</g>
      </g>
      <g
         id="use3731"
         transform="matrix(0,0.80443627,-0.80443627,0,972.44642,1009.7455)">
        <rect
           transform="translate(0,680.31491)"
           y="159.91521"
           x="-176.7767"
           height="68.690376"
           width="68.690376"
           id="rect3767"
           style="fill:none;stroke:#000000;stroke-width:1;stroke-miterlimit:4;stroke-opacity:1;stroke-dasharray:none" />
        <g
           style="fill:#000000;fill-opacity:0.20952382;stroke:#000000;stroke-opacity:1"
           transform="matrix(0.32357843,0,0,0.32357843,-202.17099,828.57757)"
           id="g3769">
	<polygon
   style="fill:#000000;fill-opacity:0.20952382;stroke:#000000;stroke-opacity:1"
   points="233.173,88.187 242.687,79.579 167.709,55.718 170.841,69.919 180.942,73.143 184.495,89.353 176.704,96.467 180.339,112.901 199.319,118.935 213.382,106.138 211.21,96.284 223.478,85.107 "
   id="polygon3771" />

	<polygon
   style="fill:#000000;fill-opacity:0.20952382;stroke:#000000;stroke-opacity:1"
   points="160.608,72.256 157.488,58.09 99.493,111.023 113.973,115.688 121.718,108.586 137.523,113.64 139.801,124.058 154.982,128.966 170.103,115.188 166.45,98.664 156.477,95.489 152.891,79.279 "
   id="polygon3773" />

	<polygon
   style="fill:#000000;fill-opacity:0.20952382;stroke:#000000;stroke-opacity:1"
   points="228.695,151.885 236.626,144.636 252.409,149.669 254.771,160.315 266.622,164.171 249.737,87.321 240.498,95.735 242.841,106.337 230.556,117.494 220.153,114.171 206.507,126.548 210.805,146.075 "
   id="polygon3775" />

	<polygon
   style="fill:#000000;fill-opacity:0.20952382;stroke:#000000;stroke-opacity:1"
   points="131.907,194.84 120.312,205.443 195.312,229.281 192.142,214.859 182.146,211.689 178.608,195.482 186.317,188.438 182.683,172.138 163.505,166.032 151.517,176.987 153.711,187.109 141.783,197.987 "
   id="polygon3777" />

	<polygon
   style="fill:#000000;fill-opacity:0.20952382;stroke:#000000;stroke-opacity:1"
   points="110.776,125.685 96.377,121.033 113.228,197.714 125.03,186.942 122.917,177.28 134.884,166.386 144.29,169.386 156.422,158.307 152.217,139.088 136.468,133.999 128.819,140.972 113.031,135.974 "
   id="polygon3779" />

	<polygon
   style="fill:#000000;fill-opacity:0.20952382;stroke:#000000;stroke-opacity:1"
   points="202.401,212.648 205.544,226.889 263.326,174.124 251.245,170.202 243.739,177.042 227.938,172.003 225.728,161.938 207.849,156.162 192.919,169.776 196.526,186.11 206.638,189.323 210.196,205.536 "
   id="polygon3781" />

</g>
      </g>
      <g
         id="use3733"
         transform="matrix(0,0.80443627,-0.80443627,0,917.18946,1009.7455)">
        <rect
           transform="translate(0,680.31491)"
           y="159.91521"
           x="-176.7767"
           height="68.690376"
           width="68.690376"
           id="rect3785"
           style="fill:none;stroke:#000000;stroke-width:1;stroke-miterlimit:4;stroke-opacity:1;stroke-dasharray:none" />
        <g
           style="fill:#000000;fill-opacity:0.20952382;stroke:#000000;stroke-opacity:1"
           transform="matrix(0.32357843,0,0,0.32357843,-202.17099,828.57757)"
           id="g3787">
	<polygon
   style="fill:#000000;fill-opacity:0.20952382;stroke:#000000;stroke-opacity:1"
   points="233.173,88.187 242.687,79.579 167.709,55.718 170.841,69.919 180.942,73.143 184.495,89.353 176.704,96.467 180.339,112.901 199.319,118.935 213.382,106.138 211.21,96.284 223.478,85.107 "
   id="polygon3789" />

	<polygon
   style="fill:#000000;fill-opacity:0.20952382;stroke:#000000;stroke-opacity:1"
   points="160.608,72.256 157.488,58.09 99.493,111.023 113.973,115.688 121.718,108.586 137.523,113.64 139.801,124.058 154.982,128.966 170.103,115.188 166.45,98.664 156.477,95.489 152.891,79.279 "
   id="polygon3791" />

	<polygon
   style="fill:#000000;fill-opacity:0.20952382;stroke:#000000;stroke-opacity:1"
   points="228.695,151.885 236.626,144.636 252.409,149.669 254.771,160.315 266.622,164.171 249.737,87.321 240.498,95.735 242.841,106.337 230.556,117.494 220.153,114.171 206.507,126.548 210.805,146.075 "
   id="polygon3793" />

	<polygon
   style="fill:#000000;fill-opacity:0.20952382;stroke:#000000;stroke-opacity:1"
   points="131.907,194.84 120.312,205.443 195.312,229.281 192.142,214.859 182.146,211.689 178.608,195.482 186.317,188.438 182.683,172.138 163.505,166.032 151.517,176.987 153.711,187.109 141.783,197.987 "
   id="polygon3795" />

	<polygon
   style="fill:#000000;fill-opacity:0.20952382;stroke:#000000;stroke-opacity:1"
   points="110.776,125.685 96.377,121.033 113.228,197.714 125.03,186.942 122.917,177.28 134.884,166.386 144.29,169.386 156.422,158.307 152.217,139.088 136.468,133.999 128.819,140.972 113.031,135.974 "
   id="polygon3797" />

	<polygon
   style="fill:#000000;fill-opacity:0.20952382;stroke:#000000;stroke-opacity:1"
   points="202.401,212.648 205.544,226.889 263.326,174.124 251.245,170.202 243.739,177.042 227.938,172.003 225.728,161.938 207.849,156.162 192.919,169.776 196.526,186.11 206.638,189.323 210.196,205.536 "
   id="polygon3799" />

</g>
      </g>
      <g
         id="use3735"
         transform="matrix(0,0.80443627,-0.80443627,0,861.93241,1009.7455)">
        <rect
           transform="translate(0,680.31491)"
           y="159.91521"
           x="-176.7767"
           height="68.690376"
           width="68.690376"
           id="rect3803"
           style="fill:none;stroke:#000000;stroke-width:1;stroke-miterlimit:4;stroke-opacity:1;stroke-dasharray:none" />
        <g
           style="fill:#000000;fill-opacity:0.20952382;stroke:#000000;stroke-opacity:1"
           transform="matrix(0.32357843,0,0,0.32357843,-202.17099,828.57757)"
           id="g3805">
	<polygon
   style="fill:#000000;fill-opacity:0.20952382;stroke:#000000;stroke-opacity:1"
   points="233.173,88.187 242.687,79.579 167.709,55.718 170.841,69.919 180.942,73.143 184.495,89.353 176.704,96.467 180.339,112.901 199.319,118.935 213.382,106.138 211.21,96.284 223.478,85.107 "
   id="polygon3807" />

	<polygon
   style="fill:#000000;fill-opacity:0.20952382;stroke:#000000;stroke-opacity:1"
   points="160.608,72.256 157.488,58.09 99.493,111.023 113.973,115.688 121.718,108.586 137.523,113.64 139.801,124.058 154.982,128.966 170.103,115.188 166.45,98.664 156.477,95.489 152.891,79.279 "
   id="polygon3809" />

	<polygon
   style="fill:#000000;fill-opacity:0.20952382;stroke:#000000;stroke-opacity:1"
   points="228.695,151.885 236.626,144.636 252.409,149.669 254.771,160.315 266.622,164.171 249.737,87.321 240.498,95.735 242.841,106.337 230.556,117.494 220.153,114.171 206.507,126.548 210.805,146.075 "
   id="polygon3811" />

	<polygon
   style="fill:#000000;fill-opacity:0.20952382;stroke:#000000;stroke-opacity:1"
   points="131.907,194.84 120.312,205.443 195.312,229.281 192.142,214.859 182.146,211.689 178.608,195.482 186.317,188.438 182.683,172.138 163.505,166.032 151.517,176.987 153.711,187.109 141.783,197.987 "
   id="polygon3813" />

	<polygon
   style="fill:#000000;fill-opacity:0.20952382;stroke:#000000;stroke-opacity:1"
   points="110.776,125.685 96.377,121.033 113.228,197.714 125.03,186.942 122.917,177.28 134.884,166.386 144.29,169.386 156.422,158.307 152.217,139.088 136.468,133.999 128.819,140.972 113.031,135.974 "
   id="polygon3815" />

	<polygon
   style="fill:#000000;fill-opacity:0.20952382;stroke:#000000;stroke-opacity:1"
   points="202.401,212.648 205.544,226.889 263.326,174.124 251.245,170.202 243.739,177.042 227.938,172.003 225.728,161.938 207.849,156.162 192.919,169.776 196.526,186.11 206.638,189.323 210.196,205.536 "
   id="polygon3817" />

</g>
      </g>
      <g
         id="use3737"
         transform="matrix(0,0.80443627,-0.80443627,0,806.67538,1009.7455)">
        <rect
           transform="translate(0,680.31491)"
           y="159.91521"
           x="-176.7767"
           height="68.690376"
           width="68.690376"
           id="rect3821"
           style="fill:none;stroke:#000000;stroke-width:1;stroke-miterlimit:4;stroke-opacity:1;stroke-dasharray:none" />
        <g
           style="fill:#000000;fill-opacity:0.20952382;stroke:#000000;stroke-opacity:1"
           transform="matrix(0.32357843,0,0,0.32357843,-202.17099,828.57757)"
           id="g3823">
	<polygon
   style="fill:#000000;fill-opacity:0.20952382;stroke:#000000;stroke-opacity:1"
   points="233.173,88.187 242.687,79.579 167.709,55.718 170.841,69.919 180.942,73.143 184.495,89.353 176.704,96.467 180.339,112.901 199.319,118.935 213.382,106.138 211.21,96.284 223.478,85.107 "
   id="polygon3825" />

	<polygon
   style="fill:#000000;fill-opacity:0.20952382;stroke:#000000;stroke-opacity:1"
   points="160.608,72.256 157.488,58.09 99.493,111.023 113.973,115.688 121.718,108.586 137.523,113.64 139.801,124.058 154.982,128.966 170.103,115.188 166.45,98.664 156.477,95.489 152.891,79.279 "
   id="polygon3827" />

	<polygon
   style="fill:#000000;fill-opacity:0.20952382;stroke:#000000;stroke-opacity:1"
   points="228.695,151.885 236.626,144.636 252.409,149.669 254.771,160.315 266.622,164.171 249.737,87.321 240.498,95.735 242.841,106.337 230.556,117.494 220.153,114.171 206.507,126.548 210.805,146.075 "
   id="polygon3829" />

	<polygon
   style="fill:#000000;fill-opacity:0.20952382;stroke:#000000;stroke-opacity:1"
   points="131.907,194.84 120.312,205.443 195.312,229.281 192.142,214.859 182.146,211.689 178.608,195.482 186.317,188.438 182.683,172.138 163.505,166.032 151.517,176.987 153.711,187.109 141.783,197.987 "
   id="polygon3831" />

	<polygon
   style="fill:#000000;fill-opacity:0.20952382;stroke:#000000;stroke-opacity:1"
   points="110.776,125.685 96.377,121.033 113.228,197.714 125.03,186.942 122.917,177.28 134.884,166.386 144.29,169.386 156.422,158.307 152.217,139.088 136.468,133.999 128.819,140.972 113.031,135.974 "
   id="polygon3833" />

	<polygon
   style="fill:#000000;fill-opacity:0.20952382;stroke:#000000;stroke-opacity:1"
   points="202.401,212.648 205.544,226.889 263.326,174.124 251.245,170.202 243.739,177.042 227.938,172.003 225.728,161.938 207.849,156.162 192.919,169.776 196.526,186.11 206.638,189.323 210.196,205.536 "
   id="polygon3835" />

</g>
      </g>
      <g
         id="use3739"
         transform="matrix(0,0.80443627,-0.80443627,0,751.41836,1009.7455)">
        <rect
           transform="translate(0,680.31491)"
           y="159.91521"
           x="-176.7767"
           height="68.690376"
           width="68.690376"
           id="rect3839"
           style="fill:none;stroke:#000000;stroke-width:1;stroke-miterlimit:4;stroke-opacity:1;stroke-dasharray:none" />
        <g
           style="fill:#000000;fill-opacity:0.20952382;stroke:#000000;stroke-opacity:1"
           transform="matrix(0.32357843,0,0,0.32357843,-202.17099,828.57757)"
           id="g3841">
	<polygon
   style="fill:#000000;fill-opacity:0.20952382;stroke:#000000;stroke-opacity:1"
   points="233.173,88.187 242.687,79.579 167.709,55.718 170.841,69.919 180.942,73.143 184.495,89.353 176.704,96.467 180.339,112.901 199.319,118.935 213.382,106.138 211.21,96.284 223.478,85.107 "
   id="polygon3843" />

	<polygon
   style="fill:#000000;fill-opacity:0.20952382;stroke:#000000;stroke-opacity:1"
   points="160.608,72.256 157.488,58.09 99.493,111.023 113.973,115.688 121.718,108.586 137.523,113.64 139.801,124.058 154.982,128.966 170.103,115.188 166.45,98.664 156.477,95.489 152.891,79.279 "
   id="polygon3845" />

	<polygon
   style="fill:#000000;fill-opacity:0.20952382;stroke:#000000;stroke-opacity:1"
   points="228.695,151.885 236.626,144.636 252.409,149.669 254.771,160.315 266.622,164.171 249.737,87.321 240.498,95.735 242.841,106.337 230.556,117.494 220.153,114.171 206.507,126.548 210.805,146.075 "
   id="polygon3847" />

	<polygon
   style="fill:#000000;fill-opacity:0.20952382;stroke:#000000;stroke-opacity:1"
   points="131.907,194.84 120.312,205.443 195.312,229.281 192.142,214.859 182.146,211.689 178.608,195.482 186.317,188.438 182.683,172.138 163.505,166.032 151.517,176.987 153.711,187.109 141.783,197.987 "
   id="polygon3849" />

	<polygon
   style="fill:#000000;fill-opacity:0.20952382;stroke:#000000;stroke-opacity:1"
   points="110.776,125.685 96.377,121.033 113.228,197.714 125.03,186.942 122.917,177.28 134.884,166.386 144.29,169.386 156.422,158.307 152.217,139.088 136.468,133.999 128.819,140.972 113.031,135.974 "
   id="polygon3851" />

	<polygon
   style="fill:#000000;fill-opacity:0.20952382;stroke:#000000;stroke-opacity:1"
   points="202.401,212.648 205.544,226.889 263.326,174.124 251.245,170.202 243.739,177.042 227.938,172.003 225.728,161.938 207.849,156.162 192.919,169.776 196.526,186.11 206.638,189.323 210.196,205.536 "
   id="polygon3853" />

</g>
      </g>
      <g
         id="use3741"
         transform="matrix(0,0.80443627,-0.80443627,0,1027.7034,1065.0026)">
        <rect
           transform="translate(0,680.31491)"
           y="159.91521"
           x="-176.7767"
           height="68.690376"
           width="68.690376"
           id="rect3857"
           style="fill:none;stroke:#000000;stroke-width:1;stroke-miterlimit:4;stroke-opacity:1;stroke-dasharray:none" />
        <g
           style="fill:#000000;fill-opacity:0.20952382;stroke:#000000;stroke-opacity:1"
           transform="matrix(0.32357843,0,0,0.32357843,-202.17099,828.57757)"
           id="g3859">
	<polygon
   style="fill:#000000;fill-opacity:0.20952382;stroke:#000000;stroke-opacity:1"
   points="233.173,88.187 242.687,79.579 167.709,55.718 170.841,69.919 180.942,73.143 184.495,89.353 176.704,96.467 180.339,112.901 199.319,118.935 213.382,106.138 211.21,96.284 223.478,85.107 "
   id="polygon3861" />

	<polygon
   style="fill:#000000;fill-opacity:0.20952382;stroke:#000000;stroke-opacity:1"
   points="160.608,72.256 157.488,58.09 99.493,111.023 113.973,115.688 121.718,108.586 137.523,113.64 139.801,124.058 154.982,128.966 170.103,115.188 166.45,98.664 156.477,95.489 152.891,79.279 "
   id="polygon3863" />

	<polygon
   style="fill:#000000;fill-opacity:0.20952382;stroke:#000000;stroke-opacity:1"
   points="228.695,151.885 236.626,144.636 252.409,149.669 254.771,160.315 266.622,164.171 249.737,87.321 240.498,95.735 242.841,106.337 230.556,117.494 220.153,114.171 206.507,126.548 210.805,146.075 "
   id="polygon3865" />

	<polygon
   style="fill:#000000;fill-opacity:0.20952382;stroke:#000000;stroke-opacity:1"
   points="131.907,194.84 120.312,205.443 195.312,229.281 192.142,214.859 182.146,211.689 178.608,195.482 186.317,188.438 182.683,172.138 163.505,166.032 151.517,176.987 153.711,187.109 141.783,197.987 "
   id="polygon3867" />

	<polygon
   style="fill:#000000;fill-opacity:0.20952382;stroke:#000000;stroke-opacity:1"
   points="110.776,125.685 96.377,121.033 113.228,197.714 125.03,186.942 122.917,177.28 134.884,166.386 144.29,169.386 156.422,158.307 152.217,139.088 136.468,133.999 128.819,140.972 113.031,135.974 "
   id="polygon3869" />

	<polygon
   style="fill:#000000;fill-opacity:0.20952382;stroke:#000000;stroke-opacity:1"
   points="202.401,212.648 205.544,226.889 263.326,174.124 251.245,170.202 243.739,177.042 227.938,172.003 225.728,161.938 207.849,156.162 192.919,169.776 196.526,186.11 206.638,189.323 210.196,205.536 "
   id="polygon3871" />

</g>
      </g>
      <g
         id="use3743"
         transform="matrix(0,0.80443627,-0.80443627,0,972.44642,1065.0026)">
        <rect
           transform="translate(0,680.31491)"
           y="159.91521"
           x="-176.7767"
           height="68.690376"
           width="68.690376"
           id="rect3875"
           style="fill:none;stroke:#000000;stroke-width:1;stroke-miterlimit:4;stroke-opacity:1;stroke-dasharray:none" />
        <g
           style="fill:#000000;fill-opacity:0.20952382;stroke:#000000;stroke-opacity:1"
           transform="matrix(0.32357843,0,0,0.32357843,-202.17099,828.57757)"
           id="g3877">
	<polygon
   style="fill:#000000;fill-opacity:0.20952382;stroke:#000000;stroke-opacity:1"
   points="233.173,88.187 242.687,79.579 167.709,55.718 170.841,69.919 180.942,73.143 184.495,89.353 176.704,96.467 180.339,112.901 199.319,118.935 213.382,106.138 211.21,96.284 223.478,85.107 "
   id="polygon3879" />

	<polygon
   style="fill:#000000;fill-opacity:0.20952382;stroke:#000000;stroke-opacity:1"
   points="160.608,72.256 157.488,58.09 99.493,111.023 113.973,115.688 121.718,108.586 137.523,113.64 139.801,124.058 154.982,128.966 170.103,115.188 166.45,98.664 156.477,95.489 152.891,79.279 "
   id="polygon3881" />

	<polygon
   style="fill:#000000;fill-opacity:0.20952382;stroke:#000000;stroke-opacity:1"
   points="228.695,151.885 236.626,144.636 252.409,149.669 254.771,160.315 266.622,164.171 249.737,87.321 240.498,95.735 242.841,106.337 230.556,117.494 220.153,114.171 206.507,126.548 210.805,146.075 "
   id="polygon3883" />

	<polygon
   style="fill:#000000;fill-opacity:0.20952382;stroke:#000000;stroke-opacity:1"
   points="131.907,194.84 120.312,205.443 195.312,229.281 192.142,214.859 182.146,211.689 178.608,195.482 186.317,188.438 182.683,172.138 163.505,166.032 151.517,176.987 153.711,187.109 141.783,197.987 "
   id="polygon3885" />

	<polygon
   style="fill:#000000;fill-opacity:0.20952382;stroke:#000000;stroke-opacity:1"
   points="110.776,125.685 96.377,121.033 113.228,197.714 125.03,186.942 122.917,177.28 134.884,166.386 144.29,169.386 156.422,158.307 152.217,139.088 136.468,133.999 128.819,140.972 113.031,135.974 "
   id="polygon3887" />

	<polygon
   style="fill:#000000;fill-opacity:0.20952382;stroke:#000000;stroke-opacity:1"
   points="202.401,212.648 205.544,226.889 263.326,174.124 251.245,170.202 243.739,177.042 227.938,172.003 225.728,161.938 207.849,156.162 192.919,169.776 196.526,186.11 206.638,189.323 210.196,205.536 "
   id="polygon3889" />

</g>
      </g>
      <g
         id="use3745"
         transform="matrix(0,0.80443627,-0.80443627,0,917.18946,1065.0026)">
        <rect
           transform="translate(0,680.31491)"
           y="159.91521"
           x="-176.7767"
           height="68.690376"
           width="68.690376"
           id="rect3893"
           style="fill:none;stroke:#000000;stroke-width:1;stroke-miterlimit:4;stroke-opacity:1;stroke-dasharray:none" />
        <g
           style="fill:#000000;fill-opacity:0.20952382;stroke:#000000;stroke-opacity:1"
           transform="matrix(0.32357843,0,0,0.32357843,-202.17099,828.57757)"
           id="g3895">
	<polygon
   style="fill:#000000;fill-opacity:0.20952382;stroke:#000000;stroke-opacity:1"
   points="233.173,88.187 242.687,79.579 167.709,55.718 170.841,69.919 180.942,73.143 184.495,89.353 176.704,96.467 180.339,112.901 199.319,118.935 213.382,106.138 211.21,96.284 223.478,85.107 "
   id="polygon3897" />

	<polygon
   style="fill:#000000;fill-opacity:0.20952382;stroke:#000000;stroke-opacity:1"
   points="160.608,72.256 157.488,58.09 99.493,111.023 113.973,115.688 121.718,108.586 137.523,113.64 139.801,124.058 154.982,128.966 170.103,115.188 166.45,98.664 156.477,95.489 152.891,79.279 "
   id="polygon3899" />

	<polygon
   style="fill:#000000;fill-opacity:0.20952382;stroke:#000000;stroke-opacity:1"
   points="228.695,151.885 236.626,144.636 252.409,149.669 254.771,160.315 266.622,164.171 249.737,87.321 240.498,95.735 242.841,106.337 230.556,117.494 220.153,114.171 206.507,126.548 210.805,146.075 "
   id="polygon3901" />

	<polygon
   style="fill:#000000;fill-opacity:0.20952382;stroke:#000000;stroke-opacity:1"
   points="131.907,194.84 120.312,205.443 195.312,229.281 192.142,214.859 182.146,211.689 178.608,195.482 186.317,188.438 182.683,172.138 163.505,166.032 151.517,176.987 153.711,187.109 141.783,197.987 "
   id="polygon3903" />

	<polygon
   style="fill:#000000;fill-opacity:0.20952382;stroke:#000000;stroke-opacity:1"
   points="110.776,125.685 96.377,121.033 113.228,197.714 125.03,186.942 122.917,177.28 134.884,166.386 144.29,169.386 156.422,158.307 152.217,139.088 136.468,133.999 128.819,140.972 113.031,135.974 "
   id="polygon3905" />

	<polygon
   style="fill:#000000;fill-opacity:0.20952382;stroke:#000000;stroke-opacity:1"
   points="202.401,212.648 205.544,226.889 263.326,174.124 251.245,170.202 243.739,177.042 227.938,172.003 225.728,161.938 207.849,156.162 192.919,169.776 196.526,186.11 206.638,189.323 210.196,205.536 "
   id="polygon3907" />

</g>
      </g>
      <g
         id="use3747"
         transform="matrix(0,0.80443627,-0.80443627,0,861.93241,1065.0026)">
        <rect
           transform="translate(0,680.31491)"
           y="159.91521"
           x="-176.7767"
           height="68.690376"
           width="68.690376"
           id="rect3911"
           style="fill:none;stroke:#000000;stroke-width:1;stroke-miterlimit:4;stroke-opacity:1;stroke-dasharray:none" />
        <g
           style="fill:#000000;fill-opacity:0.20952382;stroke:#000000;stroke-opacity:1"
           transform="matrix(0.32357843,0,0,0.32357843,-202.17099,828.57757)"
           id="g3913">
	<polygon
   style="fill:#000000;fill-opacity:0.20952382;stroke:#000000;stroke-opacity:1"
   points="233.173,88.187 242.687,79.579 167.709,55.718 170.841,69.919 180.942,73.143 184.495,89.353 176.704,96.467 180.339,112.901 199.319,118.935 213.382,106.138 211.21,96.284 223.478,85.107 "
   id="polygon3915" />

	<polygon
   style="fill:#000000;fill-opacity:0.20952382;stroke:#000000;stroke-opacity:1"
   points="160.608,72.256 157.488,58.09 99.493,111.023 113.973,115.688 121.718,108.586 137.523,113.64 139.801,124.058 154.982,128.966 170.103,115.188 166.45,98.664 156.477,95.489 152.891,79.279 "
   id="polygon3917" />

	<polygon
   style="fill:#000000;fill-opacity:0.20952382;stroke:#000000;stroke-opacity:1"
   points="228.695,151.885 236.626,144.636 252.409,149.669 254.771,160.315 266.622,164.171 249.737,87.321 240.498,95.735 242.841,106.337 230.556,117.494 220.153,114.171 206.507,126.548 210.805,146.075 "
   id="polygon3919" />

	<polygon
   style="fill:#000000;fill-opacity:0.20952382;stroke:#000000;stroke-opacity:1"
   points="131.907,194.84 120.312,205.443 195.312,229.281 192.142,214.859 182.146,211.689 178.608,195.482 186.317,188.438 182.683,172.138 163.505,166.032 151.517,176.987 153.711,187.109 141.783,197.987 "
   id="polygon3921" />

	<polygon
   style="fill:#000000;fill-opacity:0.20952382;stroke:#000000;stroke-opacity:1"
   points="110.776,125.685 96.377,121.033 113.228,197.714 125.03,186.942 122.917,177.28 134.884,166.386 144.29,169.386 156.422,158.307 152.217,139.088 136.468,133.999 128.819,140.972 113.031,135.974 "
   id="polygon3923" />

	<polygon
   style="fill:#000000;fill-opacity:0.20952382;stroke:#000000;stroke-opacity:1"
   points="202.401,212.648 205.544,226.889 263.326,174.124 251.245,170.202 243.739,177.042 227.938,172.003 225.728,161.938 207.849,156.162 192.919,169.776 196.526,186.11 206.638,189.323 210.196,205.536 "
   id="polygon3925" />

</g>
      </g>
      <g
         id="use3749"
         transform="matrix(0,0.80443627,-0.80443627,0,806.67538,1065.0026)">
        <rect
           transform="translate(0,680.31491)"
           y="159.91521"
           x="-176.7767"
           height="68.690376"
           width="68.690376"
           id="rect3929"
           style="fill:none;stroke:#000000;stroke-width:1;stroke-miterlimit:4;stroke-opacity:1;stroke-dasharray:none" />
        <g
           style="fill:#000000;fill-opacity:0.20952382;stroke:#000000;stroke-opacity:1"
           transform="matrix(0.32357843,0,0,0.32357843,-202.17099,828.57757)"
           id="g3931">
	<polygon
   style="fill:#000000;fill-opacity:0.20952382;stroke:#000000;stroke-opacity:1"
   points="233.173,88.187 242.687,79.579 167.709,55.718 170.841,69.919 180.942,73.143 184.495,89.353 176.704,96.467 180.339,112.901 199.319,118.935 213.382,106.138 211.21,96.284 223.478,85.107 "
   id="polygon3933" />

	<polygon
   style="fill:#000000;fill-opacity:0.20952382;stroke:#000000;stroke-opacity:1"
   points="160.608,72.256 157.488,58.09 99.493,111.023 113.973,115.688 121.718,108.586 137.523,113.64 139.801,124.058 154.982,128.966 170.103,115.188 166.45,98.664 156.477,95.489 152.891,79.279 "
   id="polygon3935" />

	<polygon
   style="fill:#000000;fill-opacity:0.20952382;stroke:#000000;stroke-opacity:1"
   points="228.695,151.885 236.626,144.636 252.409,149.669 254.771,160.315 266.622,164.171 249.737,87.321 240.498,95.735 242.841,106.337 230.556,117.494 220.153,114.171 206.507,126.548 210.805,146.075 "
   id="polygon3937" />

	<polygon
   style="fill:#000000;fill-opacity:0.20952382;stroke:#000000;stroke-opacity:1"
   points="131.907,194.84 120.312,205.443 195.312,229.281 192.142,214.859 182.146,211.689 178.608,195.482 186.317,188.438 182.683,172.138 163.505,166.032 151.517,176.987 153.711,187.109 141.783,197.987 "
   id="polygon3939" />

	<polygon
   style="fill:#000000;fill-opacity:0.20952382;stroke:#000000;stroke-opacity:1"
   points="110.776,125.685 96.377,121.033 113.228,197.714 125.03,186.942 122.917,177.28 134.884,166.386 144.29,169.386 156.422,158.307 152.217,139.088 136.468,133.999 128.819,140.972 113.031,135.974 "
   id="polygon3941" />

	<polygon
   style="fill:#000000;fill-opacity:0.20952382;stroke:#000000;stroke-opacity:1"
   points="202.401,212.648 205.544,226.889 263.326,174.124 251.245,170.202 243.739,177.042 227.938,172.003 225.728,161.938 207.849,156.162 192.919,169.776 196.526,186.11 206.638,189.323 210.196,205.536 "
   id="polygon3943" />

</g>
      </g>
      <g
         id="use3751"
         transform="matrix(0,0.80443627,-0.80443627,0,751.41836,1065.0026)">
        <rect
           transform="translate(0,680.31491)"
           y="159.91521"
           x="-176.7767"
           height="68.690376"
           width="68.690376"
           id="rect3947"
           style="fill:none;stroke:#000000;stroke-width:1;stroke-miterlimit:4;stroke-opacity:1;stroke-dasharray:none" />
        <g
           style="fill:#000000;fill-opacity:0.20952382;stroke:#000000;stroke-opacity:1"
           transform="matrix(0.32357843,0,0,0.32357843,-202.17099,828.57757)"
           id="g3949">
	<polygon
   style="fill:#000000;fill-opacity:0.20952382;stroke:#000000;stroke-opacity:1"
   points="233.173,88.187 242.687,79.579 167.709,55.718 170.841,69.919 180.942,73.143 184.495,89.353 176.704,96.467 180.339,112.901 199.319,118.935 213.382,106.138 211.21,96.284 223.478,85.107 "
   id="polygon3951" />

	<polygon
   style="fill:#000000;fill-opacity:0.20952382;stroke:#000000;stroke-opacity:1"
   points="160.608,72.256 157.488,58.09 99.493,111.023 113.973,115.688 121.718,108.586 137.523,113.64 139.801,124.058 154.982,128.966 170.103,115.188 166.45,98.664 156.477,95.489 152.891,79.279 "
   id="polygon3953" />

	<polygon
   style="fill:#000000;fill-opacity:0.20952382;stroke:#000000;stroke-opacity:1"
   points="228.695,151.885 236.626,144.636 252.409,149.669 254.771,160.315 266.622,164.171 249.737,87.321 240.498,95.735 242.841,106.337 230.556,117.494 220.153,114.171 206.507,126.548 210.805,146.075 "
   id="polygon3955" />

	<polygon
   style="fill:#000000;fill-opacity:0.20952382;stroke:#000000;stroke-opacity:1"
   points="131.907,194.84 120.312,205.443 195.312,229.281 192.142,214.859 182.146,211.689 178.608,195.482 186.317,188.438 182.683,172.138 163.505,166.032 151.517,176.987 153.711,187.109 141.783,197.987 "
   id="polygon3957" />

	<polygon
   style="fill:#000000;fill-opacity:0.20952382;stroke:#000000;stroke-opacity:1"
   points="110.776,125.685 96.377,121.033 113.228,197.714 125.03,186.942 122.917,177.28 134.884,166.386 144.29,169.386 156.422,158.307 152.217,139.088 136.468,133.999 128.819,140.972 113.031,135.974 "
   id="polygon3959" />

	<polygon
   style="fill:#000000;fill-opacity:0.20952382;stroke:#000000;stroke-opacity:1"
   points="202.401,212.648 205.544,226.889 263.326,174.124 251.245,170.202 243.739,177.042 227.938,172.003 225.728,161.938 207.849,156.162 192.919,169.776 196.526,186.11 206.638,189.323 210.196,205.536 "
   id="polygon3961" />

</g>
      </g>
      <g
         id="use3753"
         transform="matrix(0,0.80443627,-0.80443627,0,1027.7034,1120.2596)">
        <rect
           transform="translate(0,680.31491)"
           y="159.91521"
           x="-176.7767"
           height="68.690376"
           width="68.690376"
           id="rect3965"
           style="fill:none;stroke:#000000;stroke-width:1;stroke-miterlimit:4;stroke-opacity:1;stroke-dasharray:none" />
        <g
           style="fill:#000000;fill-opacity:0.20952382;stroke:#000000;stroke-opacity:1"
           transform="matrix(0.32357843,0,0,0.32357843,-202.17099,828.57757)"
           id="g3967">
	<polygon
   style="fill:#000000;fill-opacity:0.20952382;stroke:#000000;stroke-opacity:1"
   points="233.173,88.187 242.687,79.579 167.709,55.718 170.841,69.919 180.942,73.143 184.495,89.353 176.704,96.467 180.339,112.901 199.319,118.935 213.382,106.138 211.21,96.284 223.478,85.107 "
   id="polygon3969" />

	<polygon
   style="fill:#000000;fill-opacity:0.20952382;stroke:#000000;stroke-opacity:1"
   points="160.608,72.256 157.488,58.09 99.493,111.023 113.973,115.688 121.718,108.586 137.523,113.64 139.801,124.058 154.982,128.966 170.103,115.188 166.45,98.664 156.477,95.489 152.891,79.279 "
   id="polygon3971" />

	<polygon
   style="fill:#000000;fill-opacity:0.20952382;stroke:#000000;stroke-opacity:1"
   points="228.695,151.885 236.626,144.636 252.409,149.669 254.771,160.315 266.622,164.171 249.737,87.321 240.498,95.735 242.841,106.337 230.556,117.494 220.153,114.171 206.507,126.548 210.805,146.075 "
   id="polygon3973" />

	<polygon
   style="fill:#000000;fill-opacity:0.20952382;stroke:#000000;stroke-opacity:1"
   points="131.907,194.84 120.312,205.443 195.312,229.281 192.142,214.859 182.146,211.689 178.608,195.482 186.317,188.438 182.683,172.138 163.505,166.032 151.517,176.987 153.711,187.109 141.783,197.987 "
   id="polygon3975" />

	<polygon
   style="fill:#000000;fill-opacity:0.20952382;stroke:#000000;stroke-opacity:1"
   points="110.776,125.685 96.377,121.033 113.228,197.714 125.03,186.942 122.917,177.28 134.884,166.386 144.29,169.386 156.422,158.307 152.217,139.088 136.468,133.999 128.819,140.972 113.031,135.974 "
   id="polygon3977" />

	<polygon
   style="fill:#000000;fill-opacity:0.20952382;stroke:#000000;stroke-opacity:1"
   points="202.401,212.648 205.544,226.889 263.326,174.124 251.245,170.202 243.739,177.042 227.938,172.003 225.728,161.938 207.849,156.162 192.919,169.776 196.526,186.11 206.638,189.323 210.196,205.536 "
   id="polygon3979" />

</g>
      </g>
      <g
         id="use3755"
         transform="matrix(0,0.80443627,-0.80443627,0,972.44642,1120.2596)">
        <rect
           transform="translate(0,680.31491)"
           y="159.91521"
           x="-176.7767"
           height="68.690376"
           width="68.690376"
           id="rect3983"
           style="fill:none;stroke:#000000;stroke-width:1;stroke-miterlimit:4;stroke-opacity:1;stroke-dasharray:none" />
        <g
           style="fill:#000000;fill-opacity:0.20952382;stroke:#000000;stroke-opacity:1"
           transform="matrix(0.32357843,0,0,0.32357843,-202.17099,828.57757)"
           id="g3985">
	<polygon
   style="fill:#000000;fill-opacity:0.20952382;stroke:#000000;stroke-opacity:1"
   points="233.173,88.187 242.687,79.579 167.709,55.718 170.841,69.919 180.942,73.143 184.495,89.353 176.704,96.467 180.339,112.901 199.319,118.935 213.382,106.138 211.21,96.284 223.478,85.107 "
   id="polygon3987" />

	<polygon
   style="fill:#000000;fill-opacity:0.20952382;stroke:#000000;stroke-opacity:1"
   points="160.608,72.256 157.488,58.09 99.493,111.023 113.973,115.688 121.718,108.586 137.523,113.64 139.801,124.058 154.982,128.966 170.103,115.188 166.45,98.664 156.477,95.489 152.891,79.279 "
   id="polygon3989" />

	<polygon
   style="fill:#000000;fill-opacity:0.20952382;stroke:#000000;stroke-opacity:1"
   points="228.695,151.885 236.626,144.636 252.409,149.669 254.771,160.315 266.622,164.171 249.737,87.321 240.498,95.735 242.841,106.337 230.556,117.494 220.153,114.171 206.507,126.548 210.805,146.075 "
   id="polygon3991" />

	<polygon
   style="fill:#000000;fill-opacity:0.20952382;stroke:#000000;stroke-opacity:1"
   points="131.907,194.84 120.312,205.443 195.312,229.281 192.142,214.859 182.146,211.689 178.608,195.482 186.317,188.438 182.683,172.138 163.505,166.032 151.517,176.987 153.711,187.109 141.783,197.987 "
   id="polygon3993" />

	<polygon
   style="fill:#000000;fill-opacity:0.20952382;stroke:#000000;stroke-opacity:1"
   points="110.776,125.685 96.377,121.033 113.228,197.714 125.03,186.942 122.917,177.28 134.884,166.386 144.29,169.386 156.422,158.307 152.217,139.088 136.468,133.999 128.819,140.972 113.031,135.974 "
   id="polygon3995" />

	<polygon
   style="fill:#000000;fill-opacity:0.20952382;stroke:#000000;stroke-opacity:1"
   points="202.401,212.648 205.544,226.889 263.326,174.124 251.245,170.202 243.739,177.042 227.938,172.003 225.728,161.938 207.849,156.162 192.919,169.776 196.526,186.11 206.638,189.323 210.196,205.536 "
   id="polygon3997" />

</g>
      </g>
      <g
         id="use3757"
         transform="matrix(0,0.80443627,-0.80443627,0,917.18946,1120.2596)">
        <rect
           transform="translate(0,680.31491)"
           y="159.91521"
           x="-176.7767"
           height="68.690376"
           width="68.690376"
           id="rect4001"
           style="fill:none;stroke:#000000;stroke-width:1;stroke-miterlimit:4;stroke-opacity:1;stroke-dasharray:none" />
        <g
           style="fill:#000000;fill-opacity:0.20952382;stroke:#000000;stroke-opacity:1"
           transform="matrix(0.32357843,0,0,0.32357843,-202.17099,828.57757)"
           id="g4003">
	<polygon
   style="fill:#000000;fill-opacity:0.20952382;stroke:#000000;stroke-opacity:1"
   points="233.173,88.187 242.687,79.579 167.709,55.718 170.841,69.919 180.942,73.143 184.495,89.353 176.704,96.467 180.339,112.901 199.319,118.935 213.382,106.138 211.21,96.284 223.478,85.107 "
   id="polygon4005" />

	<polygon
   style="fill:#000000;fill-opacity:0.20952382;stroke:#000000;stroke-opacity:1"
   points="160.608,72.256 157.488,58.09 99.493,111.023 113.973,115.688 121.718,108.586 137.523,113.64 139.801,124.058 154.982,128.966 170.103,115.188 166.45,98.664 156.477,95.489 152.891,79.279 "
   id="polygon4007" />

	<polygon
   style="fill:#000000;fill-opacity:0.20952382;stroke:#000000;stroke-opacity:1"
   points="228.695,151.885 236.626,144.636 252.409,149.669 254.771,160.315 266.622,164.171 249.737,87.321 240.498,95.735 242.841,106.337 230.556,117.494 220.153,114.171 206.507,126.548 210.805,146.075 "
   id="polygon4009" />

	<polygon
   style="fill:#000000;fill-opacity:0.20952382;stroke:#000000;stroke-opacity:1"
   points="131.907,194.84 120.312,205.443 195.312,229.281 192.142,214.859 182.146,211.689 178.608,195.482 186.317,188.438 182.683,172.138 163.505,166.032 151.517,176.987 153.711,187.109 141.783,197.987 "
   id="polygon4011" />

	<polygon
   style="fill:#000000;fill-opacity:0.20952382;stroke:#000000;stroke-opacity:1"
   points="110.776,125.685 96.377,121.033 113.228,197.714 125.03,186.942 122.917,177.28 134.884,166.386 144.29,169.386 156.422,158.307 152.217,139.088 136.468,133.999 128.819,140.972 113.031,135.974 "
   id="polygon4013" />

	<polygon
   style="fill:#000000;fill-opacity:0.20952382;stroke:#000000;stroke-opacity:1"
   points="202.401,212.648 205.544,226.889 263.326,174.124 251.245,170.202 243.739,177.042 227.938,172.003 225.728,161.938 207.849,156.162 192.919,169.776 196.526,186.11 206.638,189.323 210.196,205.536 "
   id="polygon4015" />

</g>
      </g>
      <g
         id="use3759"
         transform="matrix(0,0.80443627,-0.80443627,0,861.93241,1120.2596)">
        <rect
           transform="translate(0,680.31491)"
           y="159.91521"
           x="-176.7767"
           height="68.690376"
           width="68.690376"
           id="rect4019"
           style="fill:none;stroke:#000000;stroke-width:1;stroke-miterlimit:4;stroke-opacity:1;stroke-dasharray:none" />
        <g
           style="fill:#000000;fill-opacity:0.20952382;stroke:#000000;stroke-opacity:1"
           transform="matrix(0.32357843,0,0,0.32357843,-202.17099,828.57757)"
           id="g4021">
	<polygon
   style="fill:#000000;fill-opacity:0.20952382;stroke:#000000;stroke-opacity:1"
   points="233.173,88.187 242.687,79.579 167.709,55.718 170.841,69.919 180.942,73.143 184.495,89.353 176.704,96.467 180.339,112.901 199.319,118.935 213.382,106.138 211.21,96.284 223.478,85.107 "
   id="polygon4023" />

	<polygon
   style="fill:#000000;fill-opacity:0.20952382;stroke:#000000;stroke-opacity:1"
   points="160.608,72.256 157.488,58.09 99.493,111.023 113.973,115.688 121.718,108.586 137.523,113.64 139.801,124.058 154.982,128.966 170.103,115.188 166.45,98.664 156.477,95.489 152.891,79.279 "
   id="polygon4025" />

	<polygon
   style="fill:#000000;fill-opacity:0.20952382;stroke:#000000;stroke-opacity:1"
   points="228.695,151.885 236.626,144.636 252.409,149.669 254.771,160.315 266.622,164.171 249.737,87.321 240.498,95.735 242.841,106.337 230.556,117.494 220.153,114.171 206.507,126.548 210.805,146.075 "
   id="polygon4027" />

	<polygon
   style="fill:#000000;fill-opacity:0.20952382;stroke:#000000;stroke-opacity:1"
   points="131.907,194.84 120.312,205.443 195.312,229.281 192.142,214.859 182.146,211.689 178.608,195.482 186.317,188.438 182.683,172.138 163.505,166.032 151.517,176.987 153.711,187.109 141.783,197.987 "
   id="polygon4029" />

	<polygon
   style="fill:#000000;fill-opacity:0.20952382;stroke:#000000;stroke-opacity:1"
   points="110.776,125.685 96.377,121.033 113.228,197.714 125.03,186.942 122.917,177.28 134.884,166.386 144.29,169.386 156.422,158.307 152.217,139.088 136.468,133.999 128.819,140.972 113.031,135.974 "
   id="polygon4031" />

	<polygon
   style="fill:#000000;fill-opacity:0.20952382;stroke:#000000;stroke-opacity:1"
   points="202.401,212.648 205.544,226.889 263.326,174.124 251.245,170.202 243.739,177.042 227.938,172.003 225.728,161.938 207.849,156.162 192.919,169.776 196.526,186.11 206.638,189.323 210.196,205.536 "
   id="polygon4033" />

</g>
      </g>
      <g
         id="use3761"
         transform="matrix(0,0.80443627,-0.80443627,0,806.67538,1120.2596)">
        <rect
           transform="translate(0,680.31491)"
           y="159.91521"
           x="-176.7767"
           height="68.690376"
           width="68.690376"
           id="rect4037"
           style="fill:none;stroke:#000000;stroke-width:1;stroke-miterlimit:4;stroke-opacity:1;stroke-dasharray:none" />
        <g
           style="fill:#000000;fill-opacity:0.20952382;stroke:#000000;stroke-opacity:1"
           transform="matrix(0.32357843,0,0,0.32357843,-202.17099,828.57757)"
           id="g4039">
	<polygon
   style="fill:#000000;fill-opacity:0.20952382;stroke:#000000;stroke-opacity:1"
   points="233.173,88.187 242.687,79.579 167.709,55.718 170.841,69.919 180.942,73.143 184.495,89.353 176.704,96.467 180.339,112.901 199.319,118.935 213.382,106.138 211.21,96.284 223.478,85.107 "
   id="polygon4041" />

	<polygon
   style="fill:#000000;fill-opacity:0.20952382;stroke:#000000;stroke-opacity:1"
   points="160.608,72.256 157.488,58.09 99.493,111.023 113.973,115.688 121.718,108.586 137.523,113.64 139.801,124.058 154.982,128.966 170.103,115.188 166.45,98.664 156.477,95.489 152.891,79.279 "
   id="polygon4043" />

	<polygon
   style="fill:#000000;fill-opacity:0.20952382;stroke:#000000;stroke-opacity:1"
   points="228.695,151.885 236.626,144.636 252.409,149.669 254.771,160.315 266.622,164.171 249.737,87.321 240.498,95.735 242.841,106.337 230.556,117.494 220.153,114.171 206.507,126.548 210.805,146.075 "
   id="polygon4045" />

	<polygon
   style="fill:#000000;fill-opacity:0.20952382;stroke:#000000;stroke-opacity:1"
   points="131.907,194.84 120.312,205.443 195.312,229.281 192.142,214.859 182.146,211.689 178.608,195.482 186.317,188.438 182.683,172.138 163.505,166.032 151.517,176.987 153.711,187.109 141.783,197.987 "
   id="polygon4047" />

	<polygon
   style="fill:#000000;fill-opacity:0.20952382;stroke:#000000;stroke-opacity:1"
   points="110.776,125.685 96.377,121.033 113.228,197.714 125.03,186.942 122.917,177.28 134.884,166.386 144.29,169.386 156.422,158.307 152.217,139.088 136.468,133.999 128.819,140.972 113.031,135.974 "
   id="polygon4049" />

	<polygon
   style="fill:#000000;fill-opacity:0.20952382;stroke:#000000;stroke-opacity:1"
   points="202.401,212.648 205.544,226.889 263.326,174.124 251.245,170.202 243.739,177.042 227.938,172.003 225.728,161.938 207.849,156.162 192.919,169.776 196.526,186.11 206.638,189.323 210.196,205.536 "
   id="polygon4051" />

</g>
      </g>
      <g
         id="use3763"
         transform="matrix(0,0.80443627,-0.80443627,0,751.41836,1120.2596)">
        <rect
           transform="translate(0,680.31491)"
           y="159.91521"
           x="-176.7767"
           height="68.690376"
           width="68.690376"
           id="rect4055"
           style="fill:none;stroke:#000000;stroke-width:1;stroke-miterlimit:4;stroke-opacity:1;stroke-dasharray:none" />
        <g
           style="fill:#000000;fill-opacity:0.20952382;stroke:#000000;stroke-opacity:1"
           transform="matrix(0.32357843,0,0,0.32357843,-202.17099,828.57757)"
           id="g4057">
	<polygon
   style="fill:#000000;fill-opacity:0.20952382;stroke:#000000;stroke-opacity:1"
   points="233.173,88.187 242.687,79.579 167.709,55.718 170.841,69.919 180.942,73.143 184.495,89.353 176.704,96.467 180.339,112.901 199.319,118.935 213.382,106.138 211.21,96.284 223.478,85.107 "
   id="polygon4059" />

	<polygon
   style="fill:#000000;fill-opacity:0.20952382;stroke:#000000;stroke-opacity:1"
   points="160.608,72.256 157.488,58.09 99.493,111.023 113.973,115.688 121.718,108.586 137.523,113.64 139.801,124.058 154.982,128.966 170.103,115.188 166.45,98.664 156.477,95.489 152.891,79.279 "
   id="polygon4061" />

	<polygon
   style="fill:#000000;fill-opacity:0.20952382;stroke:#000000;stroke-opacity:1"
   points="228.695,151.885 236.626,144.636 252.409,149.669 254.771,160.315 266.622,164.171 249.737,87.321 240.498,95.735 242.841,106.337 230.556,117.494 220.153,114.171 206.507,126.548 210.805,146.075 "
   id="polygon4063" />

	<polygon
   style="fill:#000000;fill-opacity:0.20952382;stroke:#000000;stroke-opacity:1"
   points="131.907,194.84 120.312,205.443 195.312,229.281 192.142,214.859 182.146,211.689 178.608,195.482 186.317,188.438 182.683,172.138 163.505,166.032 151.517,176.987 153.711,187.109 141.783,197.987 "
   id="polygon4065" />

	<polygon
   style="fill:#000000;fill-opacity:0.20952382;stroke:#000000;stroke-opacity:1"
   points="110.776,125.685 96.377,121.033 113.228,197.714 125.03,186.942 122.917,177.28 134.884,166.386 144.29,169.386 156.422,158.307 152.217,139.088 136.468,133.999 128.819,140.972 113.031,135.974 "
   id="polygon4067" />

	<polygon
   style="fill:#000000;fill-opacity:0.20952382;stroke:#000000;stroke-opacity:1"
   points="202.401,212.648 205.544,226.889 263.326,174.124 251.245,170.202 243.739,177.042 227.938,172.003 225.728,161.938 207.849,156.162 192.919,169.776 196.526,186.11 206.638,189.323 210.196,205.536 "
   id="polygon4069" />

</g>
      </g>
      <text
         id="text4071"
         y="850.97687"
         x="24.484756"
         style="font-size:56.9872551px;font-style:normal;font-variant:normal;font-weight:bold;font-stretch:normal;fill:#000000;fill-opacity:1;stroke:none;font-family:Bender;-inkscape-font-specification:Bitstream Vera Sans Bold"
         xml:space="preserve"><tspan
           y="850.97687"
           x="24.484756"
           id="tspan4073"
           sodipodi:role="line">100 ØLKORT</tspan></text>
      <rect
         y="790.53308"
         x="0.30555335"
         height="262.08453"
         width="372.0126"
         id="rect4834"
         style="fill:none;stroke:#000000;stroke-width:0.30164734;stroke-miterlimit:4;stroke-opacity:1;stroke-dasharray:none" />
    </g>
  </g>
</svg>
