<?xml version="1.0" encoding="UTF-8" standalone="no"?>
<!-- Created with Inkscape (http://www.inkscape.org/) -->

<svg
   xmlns:dc="http://purl.org/dc/elements/1.1/"
   xmlns:cc="http://creativecommons.org/ns#"
   xmlns:rdf="http://www.w3.org/1999/02/22-rdf-syntax-ns#"
   xmlns:svg="http://www.w3.org/2000/svg"
   xmlns="http://www.w3.org/2000/svg"
   xmlns:sodipodi="http://sodipodi.sourceforge.net/DTD/sodipodi-0.dtd"
   xmlns:inkscape="http://www.inkscape.org/namespaces/inkscape"
   width="744.09448819"
   height="1052.3622047"
   id="svg2"
   version="1.1"
   inkscape:version="0.48.2 r9819"
   sodipodi:docname="brandfare.pdf">
  <defs
     id="defs4" />
  <sodipodi:namedview
     id="base"
     pagecolor="#ffffff"
     bordercolor="#666666"
     borderopacity="1.0"
     inkscape:pageopacity="0.0"
     inkscape:pageshadow="2"
     inkscape:zoom="0.49497475"
     inkscape:cx="210.85593"
     inkscape:cy="452.37789"
     inkscape:document-units="px"
     inkscape:current-layer="layer4"
     showgrid="false"
     showguides="true"
     inkscape:guide-bbox="true"
     inkscape:window-width="1280"
     inkscape:window-height="723"
     inkscape:window-x="0"
     inkscape:window-y="0"
     inkscape:window-maximized="1" />
  <metadata
     id="metadata7">
    <rdf:RDF>
      <cc:Work
         rdf:about="">
        <dc:format>image/svg+xml</dc:format>
        <dc:type
           rdf:resource="http://purl.org/dc/dcmitype/StillImage" />
        <dc:title></dc:title>
      </cc:Work>
    </rdf:RDF>
  </metadata>
  <g
     inkscape:groupmode="layer"
     id="layer4"
     inkscape:label="Flame"
     style="display:inline">
    <g
       id="g3894">
      <path
         sodipodi:nodetypes="ssscsssssssssss"
         style="fill:#ee4034;display:inline"
         d="M 237.39881,471.83939 C 163.96276,398.40247 103.87872,337.97969 103.87872,337.56655 c 0,-0.41315 60.33792,-61.08838 134.08426,-134.83386 L 372.04724,68.650011 506.1315,202.73269 c 73.74634,73.74548 134.08426,134.42143 134.08426,134.83544 0,1.2278 -266.94057,267.79293 -268.1701,267.79293 -0.61972,0 -61.2108,-60.08475 -134.64685,-133.52167 z m 248.67936,-19.1541 C 548.18194,390.61028 599.34755,339.18451 599.77951,338.4058 600.46836,337.16401 586.58839,323.0123 486.87284,223.28864 424.3422,160.75292 372.67263,109.58732 372.05156,109.58732 c -1.78133,0 -227.60953,226.19902 -227.60953,227.98328 0,1.77495 225.83314,227.97833 227.60519,227.97833 0.61325,0 51.92717,-50.78864 114.03095,-112.86364 z"
         id="path3081"
         inkscape:connector-curvature="0" />
    </g>
    <path
       inkscape:connector-curvature="0"
       id="path3077"
       d="m 297.25221,453.38043 c -0.21144,-0.55102 -0.28593,-4.01733 -0.16552,-7.70294 l 0.2189,-6.7011 79.99986,0 79.99985,0 0,7.51172 0,7.51173 -79.83433,0.19121 c -65.97913,0.15802 -79.90104,0.0173 -80.21876,-0.81062 z m 102.62505,-32.61997 c 0.0201,-0.30986 2.17745,-2.0845 4.79399,-3.94365 2.61655,-1.85915 8.3675,-6.86071 12.7799,-11.11457 7.42139,-7.15475 8.41839,-8.46937 13.30525,-17.54389 3.12879,-5.80991 5.00718,-10.08511 4.60694,-10.48534 -0.40023,-0.40024 -2.65448,0.51767 -5.52879,2.25125 -5.97536,3.6039 -11.62667,5.34331 -17.36034,5.34331 -4.5121,0 -5.27208,-0.57088 -3.12755,-2.34934 4.05458,-3.36248 8.55551,-10.89366 11.13256,-18.62756 2.55658,-7.67248 2.68773,-8.55153 2.48557,-16.66003 -0.24987,-10.02228 -1.14468,-10.95382 -4.25406,-4.42872 -1.69264,3.55206 -2.79507,4.6719 -7.8611,7.98525 -3.2408,2.1196 -7.47775,5.41537 -9.41546,7.32393 -1.9377,1.90858 -3.765,3.47013 -4.06067,3.47013 -0.29567,0 -0.53757,-5.87912 -0.53757,-13.06471 0,-11.953 -0.19396,-13.87628 -2.27936,-22.60241 -2.08852,-8.73913 -2.66237,-10.11387 -6.85369,-16.41881 -5.16874,-7.77528 -12.31325,-15.51958 -14.31758,-15.51958 -1.20945,0 -1.33806,0.8721 -1.33806,9.07329 l 0,9.0733 -4.88262,13.97736 c -5.44433,15.58532 -5.76285,18.07378 -3.76597,29.42072 0.61303,3.48342 0.99094,6.45716 0.8398,6.60829 -0.15114,0.15114 -3.46284,-1.47752 -7.35935,-3.61924 -7.7486,-4.25904 -11.22199,-8.10079 -13.93825,-15.41649 -1.79423,-4.83241 -3.94519,-5.44229 -3.94519,-1.11863 0,1.67113 -0.56313,5.60116 -1.25138,8.7334 -1.17962,5.3684 -1.17568,5.9404 0.0688,9.97438 1.69919,5.50801 4.81788,11.14956 10.00235,18.09378 l 4.14468,5.55148 -6.29444,-0.54303 c -7.75112,-0.6687 -14.18566,-2.75509 -18.8783,-6.12127 -3.40715,-2.44405 -5.81986,-3.25569 -5.81986,-1.95782 0,0.3316 1.77465,4.69884 3.94366,9.70499 3.49731,8.07191 4.77259,10.0812 11.26778,17.75312 7.16329,8.46106 7.48339,8.72648 14.57734,12.08692 3.98928,1.88974 7.10805,3.58106 6.9306,3.7585 -0.17743,0.17744 -4.70907,0.0112 -10.07031,-0.36935 -9.65385,-0.68532 -9.85841,-0.73843 -21.24816,-5.51783 -11.68853,-4.90477 -13.01178,-5.65576 -22.29473,-12.65303 -4.71326,-3.55275 -5.7514,-4.84555 -10.14339,-12.63153 -4.71571,-8.35988 -5.15671,-9.61014 -12.18817,-34.55393 -4.0125,-14.23412 -7.5155,-27.90838 -7.78446,-30.38725 l -0.48901,-4.50703 2.80103,2.6291 c 1.54057,1.44601 4.42403,4.75368 6.40768,7.35037 1.98365,2.5967 5.74847,6.36793 8.36625,8.38052 4.31993,3.32121 5.31475,3.73732 10.769,4.50447 3.30515,0.46488 6.77736,1.0118 7.71601,1.21539 2.84442,0.61693 2.79186,-1.57468 -0.19444,-8.10763 -7.83695,-17.14447 -10.15068,-27.24463 -10.15068,-44.31082 0,-4.48386 -0.36038,-11.38439 -0.80084,-15.33452 -0.44047,-3.95013 -0.60239,-7.38051 -0.35984,-7.62307 0.88155,-0.88154 7.37135,6.42547 13.53234,15.23637 4.5453,6.50029 7.23298,9.59427 9.62784,11.08334 5.54751,3.4493 6.16655,2.56273 3.54036,-5.07041 -2.51961,-7.32337 -1.5975,-27.73673 1.95107,-43.19241 0.92999,-4.05048 0.96664,-5.74749 0.21512,-9.95719 -0.49826,-2.79101 -0.71699,-5.2635 -0.48606,-5.49444 1.21436,-1.21435 6.4024,0.9019 9.64369,3.93374 4.15045,3.88226 6.87384,10.46772 8.50847,20.5745 0.77154,4.77032 1.93379,8.20802 4.50787,13.33331 1.90756,3.79819 3.76154,6.9058 4.11995,6.9058 1.07287,0 2.02178,-1.57243 4.75975,-7.88731 5.25766,-12.12634 8.09462,-30.96747 8.09462,-53.75897 0,-14.36011 0.81963,-19.01901 5.6596,-32.16999 0.63903,-1.73633 0.95917,-0.77912 2.99869,8.96609 1.84903,8.83497 2.37103,10.13315 9.35051,23.25405 5.4061,10.16305 8.64224,17.4285 12.04498,27.0422 5.80402,16.39798 6.99472,23.48632 5.50645,32.78037 -0.56325,3.5174 -0.83112,6.7075 -0.59528,7.08911 1.36302,2.2054 7.91485,-0.82071 12.11984,-5.59783 2.45134,-2.78487 3.34908,-4.78533 5.32341,-11.86237 1.39529,-5.00145 2.73607,-12.23057 3.25064,-17.52666 0.48169,-4.95774 1.14493,-9.31056 1.47386,-9.67292 0.32893,-0.36237 2.36105,2.84889 4.51583,7.13614 3.47775,6.91951 4.02954,8.68083 4.91294,15.6823 0.54735,4.33802 1.00617,13.48358 1.0196,20.32347 l 0.0244,12.43617 -2.62911,6.52006 c -1.446,3.58603 -2.6291,6.86299 -2.6291,7.28211 0,2.78252 10.80069,-3.40915 16.55534,-9.49061 2.3633,-2.49753 5.55436,-7.09566 7.39079,-10.64972 1.77748,-3.43998 3.38126,-6.10504 3.56394,-5.92236 0.88304,0.88305 4.75676,16.20212 5.58056,22.06904 0.89128,6.34747 0.84053,7.02245 -1.17649,15.64769 -2.3227,9.93238 -4.86808,15.62538 -11.18866,25.02456 -2.30983,3.43488 -4.19969,6.56164 -4.19969,6.94834 0,2.48124 15.74596,-2.46752 21.37593,-6.71818 2.24563,-1.69548 4.23541,-2.83196 4.42173,-2.52553 0.18632,0.30643 0.004,5.23263 -0.40567,10.94709 -0.65005,9.07249 -1.19856,11.85627 -4.32577,21.95394 -3.18676,10.28992 -4.22044,12.57978 -9.38212,20.78371 -5.60773,8.91289 -6.02993,9.37555 -12.68609,13.90219 -10.76801,7.32295 -19.76659,11.37445 -28.98437,13.04985 -8.01948,1.4576 -15.1126,1.86261 -15.04734,0.85919 z"
       style="fill:#020202;display:inline" />
    <text
       xml:space="preserve"
       style="font-size:40px;font-style:normal;font-variant:normal;font-weight:bold;font-stretch:normal;line-height:125%;letter-spacing:0px;word-spacing:0px;fill:#000000;fill-opacity:1;stroke:none;font-family:Arial Rounded MT Bold;-inkscape-font-specification:Arial Rounded MT Bold"
       x="127.76404"
       y="728.78851"
       id="text3118"
       sodipodi:linespacing="125%"><tspan
         sodipodi:role="line"
         id="tspan3120"
         x="127.76404"
         y="728.78851"
         style="font-size:72px;font-style:normal;font-variant:normal;font-weight:bold;font-stretch:normal;font-family:Bitstream Vera Sans;-inkscape-font-specification:Bitstream Vera Sans">BRANDFARE</tspan></text>
    <rect
       style="fill:none;stroke:#ee4034;stroke-width:20;stroke-linecap:round;stroke-linejoin:round;stroke-miterlimit:4;stroke-opacity:1;stroke-dasharray:none"
       id="rect3122"
       width="573.76666"
       height="123.23861"
       x="85.16391"
       y="641.91534" />
    <text
       xml:space="preserve"
       style="font-size:40px;font-style:normal;font-variant:normal;font-weight:bold;font-stretch:normal;line-height:125%;letter-spacing:0px;word-spacing:0px;fill:#000000;fill-opacity:1;stroke:none;font-family:BiauKai;-inkscape-font-specification:Sans Bold"
       x="371.79333"
       y="852.45355"
       id="text3897"
       sodipodi:linespacing="125%"><tspan
         sodipodi:role="line"
         id="tspan3899"
         x="371.79333"
         y="852.45355"
         style="font-style:normal;font-variant:normal;font-weight:bold;font-stretch:normal;text-align:center;text-anchor:middle;font-family:Bitstream Vera Sans;-inkscape-font-specification:Bitstream Vera Sans Bold">Husk at åbne mindst én</tspan><tspan
         sodipodi:role="line"
         x="378.74646"
         y="902.45355"
         style="font-style:normal;font-variant:normal;font-weight:bold;font-stretch:normal;text-align:center;text-anchor:middle;font-family:Bitstream Vera Sans;-inkscape-font-specification:Bitstream Vera Sans Bold"
         id="tspan3901">af havedørene, når du </tspan><tspan
         sodipodi:role="line"
         x="371.79333"
         y="952.45355"
         style="font-style:normal;font-variant:normal;font-weight:bold;font-stretch:normal;text-align:center;text-anchor:middle;font-family:Bitstream Vera Sans;-inkscape-font-specification:Bitstream Vera Sans Bold"
         id="tspan3903">opholder dig i lokalet</tspan></text>
  </g>
</svg>
