<?xml version="1.0" encoding="UTF-8" standalone="no"?>
<!-- Created with Inkscape (http://www.inkscape.org/) -->

<svg
   xmlns:dc="http://purl.org/dc/elements/1.1/"
   xmlns:cc="http://creativecommons.org/ns#"
   xmlns:rdf="http://www.w3.org/1999/02/22-rdf-syntax-ns#"
   xmlns:svg="http://www.w3.org/2000/svg"
   xmlns="http://www.w3.org/2000/svg"
   xmlns:sodipodi="http://sodipodi.sourceforge.net/DTD/sodipodi-0.dtd"
   xmlns:inkscape="http://www.inkscape.org/namespaces/inkscape"
   width="744.09448"
   height="1052.3622"
   id="svg2"
   version="1.1"
   inkscape:version="0.47 r22583"
   sodipodi:docname="up_grun.pdf">
  <defs
     id="defs4"><marker
   inkscape:stockid="DiamondSstart"
   orient="auto"
   refY="0"
   refX="0"
   id="DiamondSstart"
   style="overflow:visible">
  <path
     id="path3791"
     d="M 0,-7.0710768 -7.0710894,0 0,7.0710589 7.0710462,0 0,-7.0710768 z"
     style="fill-rule:evenodd;stroke:#000000;stroke-width:1pt;marker-start:none"
     transform="matrix(0.2,0,0,0.2,1.2,0)" />
</marker>
<marker
   inkscape:stockid="DotS"
   orient="auto"
   refY="0"
   refX="0"
   id="DotS"
   style="overflow:visible">
  <path
     id="path3764"
     d="m -2.5,-1 c 0,2.76 -2.24,5 -5,5 -2.76,0 -5,-2.24 -5,-5 0,-2.76 2.24,-5 5,-5 2.76,0 5,2.24 5,5 z"
     style="fill-rule:evenodd;stroke:#000000;stroke-width:1pt;marker-start:none;marker-end:none"
     transform="matrix(0.2,0,0,0.2,1.48,0.2)" />
</marker>
<marker
   inkscape:stockid="TriangleOutS"
   orient="auto"
   refY="0"
   refX="0"
   id="TriangleOutS"
   style="overflow:visible">
  <path
     id="path3845"
     d="m 5.77,0 -8.65,5 0,-10 8.65,5 z"
     style="fill-rule:evenodd;stroke:#000000;stroke-width:1pt;marker-start:none"
     transform="scale(0.2,0.2)" />
</marker>
<marker
   style="overflow:visible"
   inkscape:stockid="InfiniteLineStart"
   id="InfiniteLineStart"
   refX="0"
   refY="0"
   orient="auto">
  <g
     id="g3941"
     transform="translate(-13,0)">
    <circle
       d="M 3.8,0 C 3.8,0.44182781 3.4418278,0.80000001 3,0.80000001 2.5581722,0.80000001 2.2,0.44182781 2.2,0 c 0,-0.44182781 0.3581722,-0.80000001 0.8,-0.80000001 0.4418278,0 0.8,0.3581722 0.8,0.80000001 z"
       id="circle3943"
       r="0.80000001"
       cy="0"
       cx="3"
       sodipodi:cx="3"
       sodipodi:cy="0"
       sodipodi:rx="0.80000001"
       sodipodi:ry="0.80000001" />
    <circle
       d="M 7.3,0 C 7.3,0.44182781 6.9418278,0.80000001 6.5,0.80000001 6.0581722,0.80000001 5.7,0.44182781 5.7,0 c 0,-0.44182781 0.3581722,-0.80000001 0.8,-0.80000001 0.4418278,0 0.8,0.3581722 0.8,0.80000001 z"
       id="circle3945"
       r="0.80000001"
       cy="0"
       cx="6.5"
       sodipodi:cx="6.5"
       sodipodi:cy="0"
       sodipodi:rx="0.80000001"
       sodipodi:ry="0.80000001" />
    <circle
       d="M 10.8,0 C 10.8,0.44182781 10.441828,0.80000001 10,0.80000001 9.5581722,0.80000001 9.2,0.44182781 9.2,0 c 0,-0.44182781 0.3581722,-0.80000001 0.8,-0.80000001 0.441828,0 0.8,0.3581722 0.8,0.80000001 z"
       id="circle3947"
       r="0.80000001"
       cy="0"
       cx="10"
       sodipodi:cx="10"
       sodipodi:cy="0"
       sodipodi:rx="0.80000001"
       sodipodi:ry="0.80000001" />
  </g>
</marker>
<marker
   inkscape:stockid="Tail"
   orient="auto"
   refY="0"
   refX="0"
   id="Tail"
   style="overflow:visible">
  <g
     id="g3732"
     transform="scale(-1.2,-1.2)">
    <path
       id="path3734"
       d="M -3.8048674,-3.9585227 0.54352094,0"
       style="fill:none;stroke:#000000;stroke-width:0.80000001;stroke-linecap:round;marker-start:none;marker-end:none" />
    <path
       id="path3736"
       d="M -1.2866832,-3.9585227 3.0617053,0"
       style="fill:none;stroke:#000000;stroke-width:0.80000001;stroke-linecap:round;marker-start:none;marker-end:none" />
    <path
       id="path3738"
       d="M 1.3053582,-3.9585227 5.6537466,0"
       style="fill:none;stroke:#000000;stroke-width:0.80000001;stroke-linecap:round;marker-start:none;marker-end:none" />
    <path
       id="path3740"
       d="M -3.8048674,4.1775838 0.54352094,0.21974226"
       style="fill:none;stroke:#000000;stroke-width:0.80000001;stroke-linecap:round;marker-start:none;marker-end:none" />
    <path
       id="path3742"
       d="M -1.2866832,4.1775838 3.0617053,0.21974226"
       style="fill:none;stroke:#000000;stroke-width:0.80000001;stroke-linecap:round;marker-start:none;marker-end:none" />
    <path
       id="path3744"
       d="M 1.3053582,4.1775838 5.6537466,0.21974226"
       style="fill:none;stroke:#000000;stroke-width:0.80000001;stroke-linecap:round;marker-start:none;marker-end:none" />
  </g>
</marker>
<marker
   inkscape:stockid="Arrow2Send"
   orient="auto"
   refY="0"
   refX="0"
   id="Arrow2Send"
   style="overflow:visible">
  <path
     id="path3729"
     style="font-size:12px;fill-rule:evenodd;stroke-width:0.625;stroke-linejoin:round"
     d="M 8.7185878,4.0337352 -2.2072895,0.01601326 8.7185884,-4.0017078 c -1.7454984,2.3720609 -1.7354408,5.6174519 -6e-7,8.035443 z"
     transform="matrix(-0.3,0,0,-0.3,0.69,0)" />
</marker>
<marker
   inkscape:stockid="TriangleOutL"
   orient="auto"
   refY="0"
   refX="0"
   id="TriangleOutL"
   style="overflow:visible">
  <path
     id="path3839"
     d="m 5.77,0 -8.65,5 0,-10 8.65,5 z"
     style="fill-rule:evenodd;stroke:#000000;stroke-width:1pt;marker-start:none"
     transform="scale(0.8,0.8)" />
</marker>
<marker
   inkscape:stockid="Arrow1Lend"
   orient="auto"
   refY="0"
   refX="0"
   id="Arrow1Lend"
   style="overflow:visible">
  <path
     id="path3699"
     d="M 0,0 5,-5 -12.5,0 5,5 0,0 z"
     style="fill-rule:evenodd;stroke:#000000;stroke-width:1pt;marker-start:none"
     transform="matrix(-0.8,0,0,-0.8,-10,0)" />
</marker>
<marker
   inkscape:stockid="Arrow2Lend"
   orient="auto"
   refY="0"
   refX="0"
   id="Arrow2Lend"
   style="overflow:visible">
  <path
     id="path3717"
     style="font-size:12px;fill-rule:evenodd;stroke-width:0.625;stroke-linejoin:round"
     d="M 8.7185878,4.0337352 -2.2072895,0.01601326 8.7185884,-4.0017078 c -1.7454984,2.3720609 -1.7354408,5.6174519 -6e-7,8.035443 z"
     transform="matrix(-1.1,0,0,-1.1,-1.1,0)" />
</marker>
<inkscape:perspective
   sodipodi:type="inkscape:persp3d"
   inkscape:vp_x="0 : 526.18109 : 1"
   inkscape:vp_y="0 : 1000 : 0"
   inkscape:vp_z="744.09448 : 526.18109 : 1"
   inkscape:persp3d-origin="372.04724 : 350.78739 : 1"
   id="perspective10" />
<inkscape:perspective
   id="perspective2885"
   inkscape:persp3d-origin="181.5 : 95 : 1"
   inkscape:vp_z="363 : 142.5 : 1"
   inkscape:vp_y="0 : 1000 : 0"
   inkscape:vp_x="0 : 142.5 : 1"
   sodipodi:type="inkscape:persp3d" />
<inkscape:perspective
   id="perspective7544"
   inkscape:persp3d-origin="181.5 : 95 : 1"
   inkscape:vp_z="363 : 142.5 : 1"
   inkscape:vp_y="0 : 1000 : 0"
   inkscape:vp_x="0 : 142.5 : 1"
   sodipodi:type="inkscape:persp3d" />
<inkscape:perspective
   id="perspective7562"
   inkscape:persp3d-origin="0.5 : 0.33333333 : 1"
   inkscape:vp_z="1 : 0.5 : 1"
   inkscape:vp_y="0 : 1000 : 0"
   inkscape:vp_x="0 : 0.5 : 1"
   sodipodi:type="inkscape:persp3d" />
<inkscape:perspective
   id="perspective7602"
   inkscape:persp3d-origin="0.5 : 0.33333333 : 1"
   inkscape:vp_z="1 : 0.5 : 1"
   inkscape:vp_y="0 : 1000 : 0"
   inkscape:vp_x="0 : 0.5 : 1"
   sodipodi:type="inkscape:persp3d" />
<inkscape:perspective
   id="perspective7642"
   inkscape:persp3d-origin="0.5 : 0.33333333 : 1"
   inkscape:vp_z="1 : 0.5 : 1"
   inkscape:vp_y="0 : 1000 : 0"
   inkscape:vp_x="0 : 0.5 : 1"
   sodipodi:type="inkscape:persp3d" />
<inkscape:perspective
   id="perspective29208"
   inkscape:persp3d-origin="420.94501 : 198.42668 : 1"
   inkscape:vp_z="841.89001 : 297.64001 : 1"
   inkscape:vp_y="0 : 1000 : 0"
   inkscape:vp_x="0 : 297.64001 : 1"
   sodipodi:type="inkscape:persp3d" />

	
	
	
	
	
	
	
	
	
	
	
	
	
	
	
	
	
	
	
	
	
	
	
	
	
	
	
	
	
	
	
	
	
	
	
	
	
	
	
	
	
	
	
	
	
	
	
	
	
	
	
	
	
	
	
	
	
	
	
	
	
	
	
	
	
	
	
	
	
	
	
	
	
	
	
	
	
	
	
	
	
	
	
	
	
	
	
	
	
	
	
	
	
	
	
	
	
	
	
	
	
	
	
	
	
	
	
	
	
	
	
	
	
	
	
	
	
	
	
	
	
	
	
	
	
	
	
	
	
	
	
	
	
	
	
	
	
	
	
	
	
	
	
	
	
	
	
	
	
	
	
	
	
	
	
	
	
	
	
	
	
	
	
	
	
	
	
	
	
	
	
	
	
	
	
	
	
	
	
	
	
	
	
	
	
	
	
	
	
	
	
	
	
	
	
	
	
	
	
	
	
	
	
	
	
	
	
	
	
	
	
	
	
	
	
	
	
	
	
	
	
	
	
	
	
	
	
	
	
	
	
	
	
	
	
	
	
	
	
	
	
	
	
	
	
	
	
	
	
	
	
	
	
	
	
	
	
	
	
	
	
	
	
	
	
	
	
	
	
	
	
	
	
	
	
	
	
	
	
	
	
	
	
	
	
	
	
	
	
	
	
	
	
	
	
	
	
	
	
	
	
	
	
	
	
	
	
	
	
	
	
	
	
	
	
	
	
	
	
	
	
	
	
	
	
	
	
	
	
	
	
	
	
	
	
	
	
	
	
	
	
	
	
	
	
	
	
	
	
	
	
	
	
	
	
	
	
	
	
	
	
	
	
	
	
	
	
	
	
	
	
	
	
	
	
	
	
	
	
	
	
	
	
	
	
	
	
	
	
	
	
	
	
	
	
	
	
	
	
	
	
	
	
	
	
	
	
	
	
	
	
	
	
	
	
	
	
	
	
	
	
	
	
	
	
	
	
	
	
	
	
	
	
	
	
	
	
	
	
	
	
	
	
	
	
	
	
	
	
	
	
	
	
	
	
	
	
	
	
	
	
	
	
	
	
	
	
	
	
	
	
	
	
	
	
	
	
	
	
	
	
	
	
	
	
	
	
	
	
	
	
	
	
	
	
	
	
	
	
	
	
	
	
	
	
	
	
	
	
	
	
	
	
	
	
	
	
	
	
	
	
	
	
	
	
	
	
	
	
	
	
	
	
	
	
	
	
	
	
	
	
	
	
	
	
	
	
	
	
	
	
	
	
	
	
	
	
	
	
	
	
	
	
	
	
	
	
	
	
	
	
	
	
	
	
	
	
	
	
	
	
	
	
	
	
	
	
	
	
	
	
	
	
	
	
	
	
	
	
	
	
	
	
	
	
	
	
	
	
	
	
	
	
	
	
	
	
	
	
	
	
	
	
	
	
	
	
	
	
	
	
	
	
	
	
	
	
	
	
	
	
	
	
	
	
	
	
	
	
	
	
	
	
	
	
	
	
	
	
	
	
	
	
	
	
	
	
	
	
	
	
	
	
	
	
	
	
	
	
	
	
	
	
	
	
	
	
	
	
	
	
	
	
	
	
	
	
	
	
	
	
	
	
	
	
	
	
	
	
	
	
	
	
	
	
	
	
	
	
	
	
	
	
	
	
	
	
	
	
	
	
	
	
	
	
	
	
	
	
	
	
	
	
	
	
	
	
	
	
	
	
	
	
	
	
	
	
	
	
	
	
	
	
	
	
	
	
	
	
	
	
	
	
	
	
	
	
	
	
	
	
	
	
	
	
	
	
	
	
	
	
	
	
	
	
	
	
	
	
	
	
	
	
	
	
	
	
	
	
	
	
	
	
	
	
	
	
	
	
	
	
	
	
	
	
	
	
	
	
	
	
	
	
	
	
	
	
	
	
	
	
	
	
	
	
	
	
	
	
	
	
	
	
	
	
	
	
	
	
	
	
	
	
	
	
	
	
	
	
	
	
	
	
	
	
	
	
	
	
	
	
	
	
	
	
	
	
	
	
	
	
	
	
	
	
	
	
	
	
	
	
	
	
	
	
	
	
	
	
	
	
	
	
	
	
	
	
	
	
	
	
	
	
	
	
	
	
	
	
	
	
	
	
	
	
	
	
	
	
	
	
	
	
	
	
	
	
	
	
	
	
	
	
	
	
	
	
	
	
	
	
	
	
	
	
	
	
	
	
	
	
	
	
	
	
	
	
	
	
	
	
	
	
	
	
	
	
	
	
	
	
	
	
	
	
	
	
	
	
	
	
	
	
	
	
	
	
	
	
	
	
	
	
	
	
	
	
	
	
	
	
	
	
	
	
	
	
	
	
	
	
	
	
	
	
	
	
	
	
	
	
	
	
	
	
	
	
	
	
	
	
	
	
	
	
	
	
	
	
	
	
	
	
	
	
	
	
	
	
	
	
	
	
	
	
	
	
	
	
	
	
	
	
	
	
	
	
	
	
	
	
	
	
	
	
	
	
	
	
	
	
	
	
	
	
	
	
	
	
	
	
	
	
	
	
	
	
	
	
	
	
	
	
	
	
	
	
	
	
	
	
	
	
	
	
	
	
	
	
	
	
	
	
	
	
	
	
	
	
	
	
	
	
	
	
	
	
	
	
	
	
	
	
	
	
	
	
	
	
	
	
	
	
	
	
	
	
	
	
	
	
	
	
	
	
	
	
	
	
	
	
	
	
	
	
	
	
	
	
	
	
	
	
	
	
	
	
	
	
	
	
	
	
	
	
	
	
	
	
	
	
	
	
	
	
	
	
	
	
	
	
	
	
	
	
	
	
	
	
	
	
	
	
	
	
	
	
	
	
	
	
	
	
	
	
	
	
	
	
	
	
	
	
	
	
	
	
	
	
	
	
	
	
	
	
	
	
	
	
	
	
	
	
	
	
	
	
	
	
	
	
	
	
	
	
	
	
	
	
	
	
	
	
	
	
	
	
	
	
	
	
	
	
	
	
	
	
	
	
	
	
	
	
	
	
	
	
	
	
	
	
	
	
	
	
	
	
	
	
	
	
	
	
	
	
	
	
	
	
	
	
	
	
	
	
	
	
	
	
	
	
	
	
	
	
	
	
	
	
	
	
	
	
	
	
	
	
	
	
	
	
	
	
	
	
	
	
	
	
	
	
	
	
	
	
	
	
	
	
	
	
	
	
	
	
	
	
	
	
	
	
	
	
	
	
	
	
	
	
	
	
	
	
	
	
	
	
	
	
	
	
	
	
	
	
	
	
	
	
	
	
	
	
	
	
	
	
	
	
	
	
	
	
	
	
	
	
	
	
	
	
	
	
	
	
	
	
	
	
	
	
	
	
	
	
	
	
	
	
	
	
	
	
	
	
	
	
	
	
	
	
	
	
	
	
	
	
	
	
	
	
	
	
	
	
	
	
	
	
	
	
	
	
	
	
	
	
	
	
	
	
	
	
	
	
	
	
	
	
	
	
	
	
	
	
	
</defs>
  <sodipodi:namedview
     id="base"
     pagecolor="#21ff00"
     bordercolor="#666666"
     borderopacity="1.0"
     inkscape:pageopacity="0"
     inkscape:pageshadow="2"
     inkscape:zoom="0.49497475"
     inkscape:cx="84.016492"
     inkscape:cy="347.91931"
     inkscape:document-units="px"
     inkscape:current-layer="layer1"
     showgrid="false"
     inkscape:window-width="1680"
     inkscape:window-height="975"
     inkscape:window-x="0"
     inkscape:window-y="24"
     inkscape:window-maximized="1" />
  <metadata
     id="metadata7">
    <rdf:RDF>
      <cc:Work
         rdf:about="">
        <dc:format>image/svg+xml</dc:format>
        <dc:type
           rdf:resource="http://purl.org/dc/dcmitype/StillImage" />
        <dc:title></dc:title>
      </cc:Work>
    </rdf:RDF>
  </metadata>
  <g
     inkscape:label="Layer 1"
     inkscape:groupmode="layer"
     id="layer1">
    <g
       id="g54993"
       transform="matrix(0,-1,1,0,-304.39382,1000.1784)">
      <g
         transform="matrix(9.1349621,0,0,9.1349621,-1795.804,-2118.7234)"
         id="g21488"
         style="opacity:0.06694563;fill:#000000;fill-opacity:1">
		<polygon
   id="polygon21490"
   points="307.763,350.291 309.842,348.396 311.485,348.918 313.099,347.459 300.389,343.414 300.92,345.822 302.632,346.368 303.234,349.116 301.914,350.322 302.529,353.107 305.747,354.131 308.131,351.961 "
   style="fill:#000000;fill-opacity:1" />

		<polygon
   id="polygon21492"
   points="298.485,350.156 297.877,347.408 299.186,346.218 298.656,343.816 288.826,352.789 291.28,353.58 292.593,352.377 295.272,353.232 295.658,354.999 298.231,355.83 300.795,353.495 300.176,350.694 "
   style="fill:#000000;fill-opacity:1" />

		<polygon
   id="polygon21494"
   points="306.965,355.421 307.694,358.73 310.727,359.716 312.071,358.486 314.746,359.34 315.146,361.145 317.155,361.799 314.294,348.771 312.727,350.197 313.124,351.995 311.042,353.887 309.278,353.322 "
   style="fill:#000000;fill-opacity:1" />

		<polygon
   id="polygon21496"
   points="298.016,365.686 295.994,367.53 294.32,366.996 292.354,368.794 305.067,372.835 304.53,370.391 302.836,369.854 302.236,367.105 303.543,365.912 302.928,363.148 299.677,362.113 297.645,363.971 "
   style="fill:#000000;fill-opacity:1" />

		<polygon
   id="polygon21498"
   points="293.797,357.865 291.12,357.019 290.738,355.274 288.298,354.486 291.154,367.484 293.154,365.658 292.797,364.02 294.824,362.174 296.419,362.682 298.476,360.805 297.763,357.547 295.094,356.684 "
   style="fill:#000000;fill-opacity:1" />

		<polygon
   id="polygon21500"
   points="306.987,366.062 307.591,368.811 306.27,370.016 306.802,372.43 316.597,363.484 314.549,362.82 313.276,363.98 310.598,363.126 310.224,361.42 307.192,360.44 304.662,362.748 305.273,365.518 "
   style="fill:#000000;fill-opacity:1" />

	</g>
      <g
         transform="matrix(9.1349621,0,0,9.1349621,-1795.804,-2118.7234)"
         id="g21530"
         style="opacity:0.06694563;fill:#000000;fill-opacity:1">
		<polygon
   id="polygon21532"
   points="288.428,328.81 290.507,326.915 292.15,327.438 293.763,325.979 281.054,321.934 281.584,324.341 283.297,324.887 283.899,327.635 282.578,328.841 283.194,331.627 286.412,332.649 288.796,330.48 "
   style="fill:#000000;fill-opacity:1" />

		<polygon
   id="polygon21534"
   points="279.149,328.676 278.542,325.928 279.85,324.736 279.321,322.336 269.49,331.309 271.945,332.1 273.258,330.895 275.937,331.752 276.323,333.518 278.896,334.35 281.459,332.014 280.84,329.213 "
   style="fill:#000000;fill-opacity:1" />

		<polygon
   id="polygon21536"
   points="287.63,333.939 288.359,337.25 291.392,338.234 292.735,337.006 295.411,337.859 295.812,339.664 297.82,340.317 294.958,327.291 293.392,328.717 293.789,330.514 291.707,332.405 289.943,331.842 "
   style="fill:#000000;fill-opacity:1" />

		<polygon
   id="polygon21538"
   points="278.681,344.205 276.659,346.049 274.984,345.516 273.02,347.312 285.732,351.354 285.195,348.909 283.501,348.372 282.901,345.625 284.208,344.431 283.592,341.668 280.341,340.633 278.309,342.49 "
   style="fill:#000000;fill-opacity:1" />

		<polygon
   id="polygon21540"
   points="274.462,336.385 271.785,335.537 271.403,333.793 268.963,333.005 271.818,346.003 273.819,344.178 273.461,342.539 275.489,340.692 277.084,341.201 279.141,339.323 278.428,336.065 275.758,335.203 "
   style="fill:#000000;fill-opacity:1" />

		<polygon
   id="polygon21542"
   points="287.652,344.58 288.256,347.329 286.935,348.534 287.467,350.949 297.262,342.004 295.214,341.34 293.941,342.499 291.263,341.645 290.889,339.939 287.857,338.959 285.327,341.268 285.938,344.036 "
   style="fill:#000000;fill-opacity:1" />

	</g>
      <g
         transform="matrix(9.1349621,0,0,9.1349621,-1795.804,-2118.7234)"
         id="g21544"
         style="opacity:0.06694563;fill:#000000;fill-opacity:1">
		<polygon
   id="polygon21546"
   points="317.313,322.41 319.393,320.516 321.036,321.037 322.648,319.578 309.939,315.533 310.47,317.941 312.183,318.488 312.785,321.235 311.464,322.441 312.08,325.227 315.298,326.25 317.682,324.08 "
   style="fill:#000000;fill-opacity:1" />

		<polygon
   id="polygon21548"
   points="308.035,322.275 307.428,319.527 308.736,318.338 308.207,315.936 298.376,324.908 300.831,325.699 302.144,324.496 304.822,325.352 305.209,327.118 307.782,327.95 310.345,325.615 309.727,322.813 "
   style="fill:#000000;fill-opacity:1" />

		<polygon
   id="polygon21550"
   points="316.516,327.54 317.245,330.85 320.276,331.835 321.621,330.605 324.297,331.459 324.697,333.264 326.705,333.918 323.844,320.891 322.277,322.316 322.675,324.114 320.593,326.006 318.829,325.442 "
   style="fill:#000000;fill-opacity:1" />

		<polygon
   id="polygon21552"
   points="307.566,337.806 305.545,339.65 303.871,339.116 301.905,340.914 314.618,344.954 314.081,342.51 312.387,341.973 311.787,339.225 313.094,338.031 312.478,335.268 309.227,334.232 307.195,336.09 "
   style="fill:#000000;fill-opacity:1" />

		<polygon
   id="polygon21554"
   points="303.348,329.984 300.671,329.138 300.288,327.394 297.848,326.605 300.704,339.604 302.705,337.777 302.347,336.139 304.375,334.293 305.97,334.801 308.025,332.924 307.313,329.666 304.644,328.803 "
   style="fill:#000000;fill-opacity:1" />

		<polygon
   id="polygon21556"
   points="316.538,338.182 317.141,340.93 315.819,342.135 316.353,344.549 326.147,335.604 324.099,334.939 322.827,336.1 320.148,335.245 319.774,333.539 316.743,332.561 314.213,334.867 314.824,337.637 "
   style="fill:#000000;fill-opacity:1" />

	</g>
      <g
         transform="matrix(9.1349621,0,0,9.1349621,-1795.804,-2118.7234)"
         id="g22370"
         style="opacity:0.06694563;fill:#000000;fill-opacity:1">
		<polygon
   id="polygon22372"
   points="202.374,348.061 204.453,346.166 206.097,346.688 207.709,345.229 195,341.184 195.531,343.591 197.243,344.138 197.846,346.885 196.524,348.091 197.141,350.877 200.358,351.899 202.742,349.73 "
   style="fill:#000000;fill-opacity:1" />

		<polygon
   id="polygon22374"
   points="193.096,347.926 192.488,345.178 193.797,343.987 193.268,341.586 183.438,350.559 185.892,351.35 187.204,350.146 189.884,351.002 190.27,352.768 192.843,353.6 195.406,351.265 194.787,348.463 "
   style="fill:#000000;fill-opacity:1" />

		<polygon
   id="polygon22376"
   points="201.576,353.189 202.306,356.5 205.338,357.484 206.682,356.256 209.357,357.109 209.758,358.914 211.767,359.568 208.904,346.541 207.338,347.967 207.735,349.764 205.653,351.655 203.89,351.092 "
   style="fill:#000000;fill-opacity:1" />

		<polygon
   id="polygon22378"
   points="192.627,363.455 190.605,365.3 188.932,364.766 186.966,366.563 199.679,370.604 199.142,368.16 197.447,367.622 196.848,364.875 198.154,363.681 197.538,360.918 194.287,359.883 192.256,361.74 "
   style="fill:#000000;fill-opacity:1" />

		<polygon
   id="polygon22380"
   points="188.408,355.635 185.732,354.787 185.35,353.043 182.908,352.256 185.766,365.254 187.766,363.428 187.407,361.789 189.436,359.943 191.03,360.451 193.087,358.573 192.374,355.315 189.704,354.453 "
   style="fill:#000000;fill-opacity:1" />

		<polygon
   id="polygon22382"
   points="201.599,363.831 202.202,366.579 200.881,367.785 201.413,370.199 211.208,361.254 209.16,360.59 207.888,361.75 205.209,360.895 204.835,359.189 201.804,358.21 199.273,360.518 199.885,363.286 "
   style="fill:#000000;fill-opacity:1" />

	</g>
      <g
         transform="matrix(9.1349621,0,0,9.1349621,-1795.804,-2118.7234)"
         id="g22384"
         style="opacity:0.06694563;fill:#000000;fill-opacity:1">
		<polygon
   id="polygon22386"
   points="231.26,341.66 233.339,339.766 234.982,340.288 236.596,338.828 223.886,334.784 224.417,337.191 226.129,337.738 226.731,340.485 225.411,341.691 226.026,344.477 229.244,345.5 231.628,343.33 "
   style="fill:#000000;fill-opacity:1" />

		<polygon
   id="polygon22388"
   points="221.982,341.525 221.374,338.777 222.682,337.588 222.153,335.186 212.322,344.158 214.777,344.949 216.09,343.746 218.77,344.602 219.155,346.368 221.729,347.2 224.292,344.865 223.672,342.064 "
   style="fill:#000000;fill-opacity:1" />

		<polygon
   id="polygon22390"
   points="230.462,346.791 231.191,350.101 234.224,351.085 235.568,349.856 238.243,350.709 238.644,352.515 240.652,353.168 237.791,340.141 236.224,341.567 236.621,343.364 234.539,345.256 232.775,344.692 "
   style="fill:#000000;fill-opacity:1" />

		<polygon
   id="polygon22392"
   points="221.513,357.056 219.49,358.9 217.817,358.366 215.852,360.164 228.564,364.205 228.027,361.76 226.332,361.223 225.733,358.475 227.04,357.281 226.424,354.518 223.174,353.483 221.141,355.34 "
   style="fill:#000000;fill-opacity:1" />

		<polygon
   id="polygon22394"
   points="217.293,349.235 214.617,348.389 214.235,346.645 211.795,345.855 214.65,358.854 216.651,357.027 216.293,355.39 218.321,353.543 219.916,354.052 221.973,352.174 221.26,348.916 218.591,348.054 "
   style="fill:#000000;fill-opacity:1" />

		<polygon
   id="polygon22396"
   points="230.484,357.432 231.088,360.18 229.767,361.385 230.299,363.799 240.094,354.854 238.046,354.189 236.773,355.35 234.095,354.495 233.721,352.789 230.689,351.811 228.159,354.118 228.771,356.887 "
   style="fill:#000000;fill-opacity:1" />

	</g>
      <g
         transform="matrix(9.1349621,0,0,9.1349621,-1795.804,-2118.7234)"
         id="g22398"
         style="opacity:0.06694563;fill:#000000;fill-opacity:1">
		<polygon
   id="polygon22400"
   points="259.929,334.855 262.008,332.961 263.651,333.482 265.264,332.023 252.555,327.979 253.086,330.387 254.798,330.934 255.4,333.681 254.079,334.887 254.696,337.672 257.913,338.695 260.297,336.525 "
   style="fill:#000000;fill-opacity:1" />

		<polygon
   id="polygon22402"
   points="250.65,334.721 250.043,331.973 251.352,330.783 250.822,328.381 240.991,337.354 243.446,338.145 244.76,336.941 247.438,337.797 247.824,339.563 250.397,340.396 252.96,338.061 252.342,335.259 "
   style="fill:#000000;fill-opacity:1" />

		<polygon
   id="polygon22404"
   points="259.132,339.985 259.86,343.295 262.893,344.28 264.236,343.052 266.912,343.904 267.312,345.709 269.321,346.363 266.459,333.336 264.894,334.763 265.29,336.56 263.209,338.451 261.445,337.888 "
   style="fill:#000000;fill-opacity:1" />

		<polygon
   id="polygon22406"
   points="250.183,350.251 248.16,352.096 246.486,351.562 244.521,353.359 257.233,357.399 256.697,354.955 255.002,354.418 254.403,351.67 255.709,350.477 255.093,347.713 251.842,346.679 249.811,348.535 "
   style="fill:#000000;fill-opacity:1" />

		<polygon
   id="polygon22408"
   points="245.963,342.43 243.286,341.583 242.904,339.839 240.464,339.051 243.319,352.049 245.32,350.223 244.963,348.585 246.991,346.738 248.585,347.247 250.642,345.369 249.93,342.111 247.259,341.248 "
   style="fill:#000000;fill-opacity:1" />

		<polygon
   id="polygon22410"
   points="259.154,350.627 259.757,353.375 258.436,354.58 258.969,356.994 268.764,348.05 266.715,347.385 265.443,348.545 262.765,347.69 262.39,345.984 259.358,345.006 256.828,347.312 257.439,350.082 "
   style="fill:#000000;fill-opacity:1" />

	</g>
      <g
         transform="matrix(9.1349621,0,0,9.1349621,-1795.804,-2118.7234)"
         id="g27858"
         style="opacity:0.06694563;fill:#000000;fill-opacity:1">
		<polygon
   id="polygon27860"
   points="249.471,284.822 251.55,282.928 253.193,283.45 254.806,281.991 242.097,277.946 242.627,280.354 244.34,280.9 244.942,283.647 243.621,284.854 244.237,287.639 247.455,288.662 249.839,286.493 "
   style="fill:#000000;fill-opacity:1" />

		<polygon
   id="polygon27862"
   points="240.192,284.688 239.585,281.94 240.893,280.75 240.364,278.349 230.533,287.321 232.988,288.112 234.301,286.908 236.979,287.765 237.366,289.531 239.939,290.362 242.502,288.027 241.883,285.226 "
   style="fill:#000000;fill-opacity:1" />

		<polygon
   id="polygon27864"
   points="248.673,289.953 249.401,293.263 252.434,294.247 253.778,293.019 256.454,293.872 256.854,295.677 258.863,296.33 256.001,283.303 254.435,284.729 254.832,286.526 252.75,288.418 250.986,287.854 "
   style="fill:#000000;fill-opacity:1" />

		<polygon
   id="polygon27866"
   points="239.724,300.218 237.702,302.062 236.027,301.528 234.062,303.326 246.775,307.367 246.238,304.922 244.544,304.385 243.943,301.637 245.251,300.443 244.635,297.68 241.384,296.646 239.352,298.502 "
   style="fill:#000000;fill-opacity:1" />

		<polygon
   id="polygon27868"
   points="235.505,292.397 232.828,291.55 232.446,289.806 230.006,289.018 232.861,302.016 234.862,300.189 234.504,298.552 236.532,296.705 238.127,297.214 240.184,295.336 239.471,292.078 236.801,291.215 "
   style="fill:#000000;fill-opacity:1" />

		<polygon
   id="polygon27870"
   points="248.695,300.594 249.299,303.342 247.978,304.547 248.51,306.961 258.305,298.017 256.257,297.352 254.984,298.512 252.306,297.657 251.932,295.952 248.9,294.972 246.37,297.28 246.981,300.049 "
   style="fill:#000000;fill-opacity:1" />

	</g>
      <g
         transform="matrix(9.1349621,0,0,9.1349621,-1795.804,-2118.7234)"
         id="g27872"
         style="opacity:0.06694563;fill:#000000;fill-opacity:1">
		<polygon
   id="polygon27874"
   points="229.918,263.183 231.998,261.289 233.641,261.811 235.254,260.351 222.545,256.307 223.076,258.714 224.788,259.261 225.39,262.008 224.069,263.214 224.686,266 227.902,267.022 230.286,264.854 "
   style="fill:#000000;fill-opacity:1" />

		<polygon
   id="polygon27876"
   points="220.641,263.048 220.033,260.301 221.341,259.11 220.812,256.709 210.981,265.682 213.436,266.473 214.749,265.269 217.428,266.125 217.814,267.891 220.388,268.723 222.95,266.388 222.331,263.586 "
   style="fill:#000000;fill-opacity:1" />

		<polygon
   id="polygon27878"
   points="229.121,268.313 229.85,271.623 232.883,272.608 234.227,271.379 236.902,272.232 237.303,274.038 239.311,274.691 236.449,261.664 234.883,263.09 235.28,264.887 233.198,266.778 231.435,266.215 "
   style="fill:#000000;fill-opacity:1" />

		<polygon
   id="polygon27880"
   points="220.172,278.579 218.15,280.423 216.476,279.889 214.511,281.687 227.223,285.728 226.687,283.282 224.992,282.746 224.393,279.999 225.699,278.804 225.083,276.041 221.832,275.006 219.8,276.863 "
   style="fill:#000000;fill-opacity:1" />

		<polygon
   id="polygon27882"
   points="215.953,270.758 213.276,269.911 212.895,268.167 210.453,267.378 213.31,280.376 215.311,278.551 214.952,276.913 216.98,275.065 218.575,275.575 220.632,273.696 219.919,270.439 217.249,269.576 "
   style="fill:#000000;fill-opacity:1" />

		<polygon
   id="polygon27884"
   points="229.144,278.954 229.747,281.703 228.426,282.908 228.958,285.322 238.753,276.377 236.704,275.713 235.433,276.873 232.754,276.018 232.379,274.312 229.348,273.333 226.818,275.641 227.43,278.409 "
   style="fill:#000000;fill-opacity:1" />

	</g>
      <g
         transform="matrix(9.1349621,0,0,9.1349621,-1795.804,-2118.7234)"
         id="g27886"
         style="opacity:0.06694563;fill:#000000;fill-opacity:1">
		<polygon
   id="polygon27888"
   points="258.805,256.783 260.884,254.889 262.527,255.411 264.14,253.952 251.431,249.907 251.961,252.314 253.674,252.861 254.276,255.609 252.955,256.814 253.571,259.6 256.789,260.623 259.173,258.454 "
   style="fill:#000000;fill-opacity:1" />

		<polygon
   id="polygon27890"
   points="249.526,256.649 248.919,253.901 250.227,252.71 249.698,250.31 239.867,259.282 242.322,260.073 243.635,258.869 246.313,259.726 246.7,261.492 249.272,262.323 251.836,259.988 251.217,257.187 "
   style="fill:#000000;fill-opacity:1" />

		<polygon
   id="polygon27892"
   points="258.007,261.914 258.735,265.224 261.768,266.208 263.112,264.98 265.788,265.833 266.188,267.638 268.197,268.291 265.335,255.264 263.769,256.691 264.166,258.488 262.084,260.379 260.32,259.815 "
   style="fill:#000000;fill-opacity:1" />

		<polygon
   id="polygon27894"
   points="249.058,272.179 247.035,274.023 245.362,273.489 243.396,275.287 256.109,279.328 255.572,276.883 253.877,276.346 253.278,273.599 254.585,272.404 253.969,269.641 250.718,268.606 248.686,270.463 "
   style="fill:#000000;fill-opacity:1" />

		<polygon
   id="polygon27896"
   points="244.838,264.358 242.162,263.511 241.78,261.767 239.34,260.979 242.195,273.977 244.196,272.151 243.838,270.513 245.866,268.666 247.461,269.175 249.518,267.297 248.805,264.039 246.135,263.176 "
   style="fill:#000000;fill-opacity:1" />

		<polygon
   id="polygon27898"
   points="258.029,272.554 258.633,275.303 257.312,276.508 257.844,278.922 267.639,269.978 265.591,269.313 264.318,270.473 261.64,269.619 261.266,267.913 258.234,266.933 255.704,269.241 256.315,272.01 "
   style="fill:#000000;fill-opacity:1" />

	</g>
      <g
         transform="matrix(9.1349621,0,0,9.1349621,-1795.804,-2118.7234)"
         id="g27900"
         style="opacity:0.06694563;fill:#000000;fill-opacity:1">
		<polygon
   id="polygon27902"
   points="287.981,250.013 290.061,248.118 291.704,248.64 293.316,247.181 280.607,243.136 281.138,245.543 282.85,246.09 283.453,248.838 282.132,250.044 282.748,252.83 285.965,253.852 288.35,251.683 "
   style="fill:#000000;fill-opacity:1" />

		<polygon
   id="polygon27904"
   points="278.703,249.878 278.096,247.13 279.403,245.94 278.875,243.539 269.044,252.511 271.498,253.302 272.812,252.098 275.49,252.955 275.877,254.72 278.449,255.553 281.013,253.217 280.394,250.417 "
   style="fill:#000000;fill-opacity:1" />

		<polygon
   id="polygon27906"
   points="287.184,255.143 287.912,258.453 290.944,259.438 292.289,258.208 294.965,259.062 295.364,260.867 297.373,261.521 294.512,248.494 292.945,249.919 293.343,251.717 291.261,253.608 289.497,253.045 "
   style="fill:#000000;fill-opacity:1" />

		<polygon
   id="polygon27908"
   points="278.234,265.408 276.212,267.252 274.539,266.719 272.573,268.516 285.286,272.557 284.749,270.112 283.054,269.575 282.455,266.828 283.762,265.633 283.146,262.871 279.895,261.835 277.862,263.693 "
   style="fill:#000000;fill-opacity:1" />

		<polygon
   id="polygon27910"
   points="274.015,257.587 271.339,256.74 270.957,254.996 268.516,254.208 271.372,267.206 273.373,265.38 273.015,263.742 275.043,261.896 276.638,262.404 278.693,260.526 277.981,257.269 275.312,256.406 "
   style="fill:#000000;fill-opacity:1" />

		<polygon
   id="polygon27912"
   points="287.206,265.784 287.809,268.532 286.488,269.737 287.021,272.151 296.815,263.207 294.768,262.542 293.495,263.702 290.816,262.848 290.441,261.142 287.411,260.163 284.881,262.47 285.492,265.239 "
   style="fill:#000000;fill-opacity:1" />

	</g>
      <g
         transform="matrix(9.1349621,0,0,9.1349621,-1795.804,-2118.7234)"
         id="g27956"
         style="opacity:0.06694563;fill:#000000;fill-opacity:1">
		<polygon
   id="polygon27958"
   points="268.43,306.738 270.509,304.845 272.152,305.367 273.765,303.907 261.056,299.863 261.586,302.27 263.299,302.816 263.901,305.564 262.58,306.77 263.196,309.556 266.414,310.578 268.798,308.409 "
   style="fill:#000000;fill-opacity:1" />

		<polygon
   id="polygon27960"
   points="259.151,306.604 258.544,303.855 259.852,302.666 259.323,300.265 249.492,309.238 251.947,310.027 253.26,308.824 255.938,309.681 256.325,311.447 258.898,312.279 261.461,309.943 260.842,307.143 "
   style="fill:#000000;fill-opacity:1" />

		<polygon
   id="polygon27962"
   points="267.632,311.869 268.361,315.18 271.394,316.164 272.737,314.936 275.413,315.788 275.813,317.593 277.822,318.246 274.96,305.22 273.394,306.646 273.791,308.443 271.709,310.334 269.945,309.771 "
   style="fill:#000000;fill-opacity:1" />

		<polygon
   id="polygon27964"
   points="258.683,322.135 256.661,323.979 254.987,323.445 253.021,325.242 265.734,329.283 265.197,326.838 263.502,326.301 262.903,323.554 264.21,322.359 263.594,319.597 260.343,318.562 258.312,320.419 "
   style="fill:#000000;fill-opacity:1" />

		<polygon
   id="polygon27966"
   points="254.463,314.314 251.787,313.467 251.405,311.723 248.965,310.934 251.82,323.932 253.821,322.106 253.463,320.469 255.491,318.621 257.086,319.131 259.143,317.252 258.43,313.994 255.76,313.132 "
   style="fill:#000000;fill-opacity:1" />

		<polygon
   id="polygon27968"
   points="267.654,322.51 268.258,325.258 266.937,326.463 267.469,328.877 277.264,319.934 275.216,319.269 273.943,320.428 271.265,319.574 270.891,317.867 267.859,316.889 265.329,319.196 265.94,321.965 "
   style="fill:#000000;fill-opacity:1" />

	</g>
      <g
         transform="matrix(9.1349621,0,0,9.1349621,-1795.804,-2118.7234)"
         id="g27970"
         style="opacity:0.06694563;fill:#000000;fill-opacity:1">
		<polygon
   id="polygon27972"
   points="297.321,300.33 299.4,298.436 301.044,298.958 302.656,297.499 289.947,293.454 290.478,295.861 292.19,296.408 292.793,299.155 291.472,300.361 292.088,303.146 295.306,304.17 297.689,302 "
   style="fill:#000000;fill-opacity:1" />

		<polygon
   id="polygon27974"
   points="288.043,300.195 287.436,297.447 288.744,296.257 288.215,293.856 278.384,302.829 280.839,303.619 282.151,302.416 284.83,303.271 285.217,305.038 287.79,305.87 290.353,303.535 289.734,300.733 "
   style="fill:#000000;fill-opacity:1" />

		<polygon
   id="polygon27976"
   points="296.523,305.46 297.252,308.771 300.285,309.755 301.629,308.526 304.305,309.379 304.705,311.184 306.713,311.838 303.852,298.811 302.285,300.237 302.683,302.034 300.601,303.926 298.837,303.361 "
   style="fill:#000000;fill-opacity:1" />

		<polygon
   id="polygon27978"
   points="287.574,315.726 285.553,317.57 283.878,317.036 281.913,318.834 294.626,322.874 294.089,320.43 292.395,319.893 291.795,317.145 293.102,315.951 292.485,313.188 289.234,312.153 287.202,314.01 "
   style="fill:#000000;fill-opacity:1" />

		<polygon
   id="polygon27980"
   points="283.355,307.905 280.679,307.058 280.297,305.313 277.856,304.525 280.712,317.523 282.713,315.697 282.354,314.06 284.383,312.213 285.978,312.722 288.034,310.844 287.321,307.586 284.651,306.723 "
   style="fill:#000000;fill-opacity:1" />

		<polygon
   id="polygon27982"
   points="296.546,316.102 297.149,318.85 295.828,320.055 296.36,322.469 306.155,313.524 304.107,312.859 302.835,314.02 300.156,313.165 299.781,311.459 296.751,310.48 294.221,312.787 294.832,315.557 "
   style="fill:#000000;fill-opacity:1" />

	</g>
      <g
         transform="matrix(9.1349621,0,0,9.1349621,-1795.804,-2118.7234)"
         id="g27984"
         style="opacity:0.06694563;fill:#000000;fill-opacity:1">
		<polygon
   id="polygon27986"
   points="326.179,294.172 328.258,292.278 329.901,292.8 331.514,291.34 318.805,287.296 319.335,289.703 321.048,290.25 321.65,292.998 320.329,294.203 320.945,296.989 324.162,298.012 326.547,295.842 "
   style="fill:#000000;fill-opacity:1" />

		<polygon
   id="polygon27988"
   points="316.9,294.038 316.293,291.29 317.601,290.099 317.072,287.698 307.241,296.671 309.695,297.461 311.009,296.257 313.688,297.114 314.074,298.88 316.647,299.712 319.21,297.376 318.591,294.576 "
   style="fill:#000000;fill-opacity:1" />

		<polygon
   id="polygon27990"
   points="325.381,299.303 326.109,302.612 329.142,303.598 330.486,302.369 333.162,303.222 333.562,305.026 335.57,305.68 332.709,292.653 331.143,294.08 331.54,295.876 329.458,297.768 327.694,297.204 "
   style="fill:#000000;fill-opacity:1" />

		<polygon
   id="polygon27992"
   points="316.432,309.567 314.41,311.412 312.735,310.879 310.771,312.676 323.482,316.717 322.946,314.271 321.252,313.734 320.651,310.987 321.959,309.793 321.343,307.029 318.092,305.995 316.06,307.853 "
   style="fill:#000000;fill-opacity:1" />

		<polygon
   id="polygon27994"
   points="312.213,301.747 309.536,300.9 309.154,299.156 306.713,298.368 309.569,311.365 311.57,309.54 311.212,307.901 313.24,306.055 314.835,306.563 316.891,304.686 316.178,301.428 313.509,300.564 "
   style="fill:#000000;fill-opacity:1" />

		<polygon
   id="polygon27996"
   points="325.403,309.943 326.006,312.691 324.686,313.896 325.218,316.311 335.013,307.367 332.965,306.701 331.692,307.861 329.014,307.008 328.639,305.301 325.608,304.322 323.078,306.63 323.689,309.398 "
   style="fill:#000000;fill-opacity:1" />

	</g>
      <g
         transform="matrix(9.1349621,0,0,9.1349621,-1795.804,-2118.7234)"
         id="g27998"
         style="opacity:0.06694563;fill:#000000;fill-opacity:1">
		<polygon
   id="polygon28000"
   points="277.77,278.691 279.849,276.796 281.491,277.318 283.105,275.859 270.396,271.814 270.927,274.222 272.639,274.768 273.24,277.516 271.92,278.722 272.536,281.508 275.753,282.53 278.137,280.361 "
   style="fill:#000000;fill-opacity:1" />

		<polygon
   id="polygon28002"
   points="268.491,278.556 267.884,275.809 269.191,274.618 268.663,272.216 258.832,281.189 261.286,281.979 262.6,280.776 265.279,281.633 265.664,283.399 268.238,284.231 270.801,281.896 270.182,279.094 "
   style="fill:#000000;fill-opacity:1" />

		<polygon
   id="polygon28004"
   points="276.972,283.821 277.7,287.131 280.733,288.116 282.078,286.887 284.753,287.74 285.153,289.544 287.161,290.198 284.3,277.171 282.733,278.598 283.131,280.395 281.049,282.286 279.285,281.723 "
   style="fill:#000000;fill-opacity:1" />

		<polygon
   id="polygon28006"
   points="268.022,294.086 266.001,295.931 264.326,295.396 262.361,297.194 275.073,301.234 274.537,298.79 272.843,298.253 272.243,295.506 273.55,294.312 272.934,291.548 269.683,290.514 267.65,292.371 "
   style="fill:#000000;fill-opacity:1" />

		<polygon
   id="polygon28008"
   points="263.804,286.266 261.127,285.418 260.745,283.675 258.304,282.886 261.16,295.884 263.161,294.059 262.803,292.42 264.831,290.574 266.426,291.082 268.482,289.204 267.77,285.946 265.1,285.084 "
   style="fill:#000000;fill-opacity:1" />

		<polygon
   id="polygon28010"
   points="276.994,294.462 277.598,297.21 276.276,298.416 276.809,300.83 286.604,291.885 284.555,291.22 283.283,292.38 280.604,291.526 280.229,289.82 277.199,288.841 274.668,291.148 275.28,293.917 "
   style="fill:#000000;fill-opacity:1" />

	</g>
      <g
         transform="matrix(9.1349621,0,0,9.1349621,-1795.804,-2118.7234)"
         id="g28012"
         style="opacity:0.06694563;fill:#000000;fill-opacity:1">
		<polygon
   id="polygon28014"
   points="306.655,272.291 308.734,270.396 310.378,270.918 311.99,269.459 299.281,265.415 299.812,267.822 301.523,268.369 302.127,271.116 300.806,272.322 301.422,275.108 304.64,276.13 307.023,273.961 "
   style="fill:#000000;fill-opacity:1" />

		<polygon
   id="polygon28016"
   points="297.377,272.156 296.77,269.409 298.078,268.218 297.549,265.817 287.718,274.79 290.173,275.58 291.485,274.377 294.164,275.233 294.551,276.999 297.123,277.831 299.687,275.496 299.068,272.695 "
   style="fill:#000000;fill-opacity:1" />

		<polygon
   id="polygon28018"
   points="305.857,277.421 306.586,280.731 309.619,281.716 310.963,280.487 313.639,281.34 314.039,283.145 316.047,283.799 313.186,270.772 311.619,272.198 312.017,273.995 309.935,275.886 308.171,275.323 "
   style="fill:#000000;fill-opacity:1" />

		<polygon
   id="polygon28020"
   points="296.908,287.687 294.887,289.531 293.213,288.997 291.247,290.794 303.96,294.835 303.423,292.391 301.728,291.854 301.129,289.106 302.436,287.912 301.819,285.149 298.568,284.114 296.537,285.971 "
   style="fill:#000000;fill-opacity:1" />

		<polygon
   id="polygon28022"
   points="292.688,279.866 290.013,279.019 289.631,277.275 287.19,276.486 290.046,289.484 292.047,287.659 291.688,286.021 293.717,284.174 295.312,284.683 297.368,282.804 296.655,279.547 293.985,278.685 "
   style="fill:#000000;fill-opacity:1" />

		<polygon
   id="polygon28024"
   points="305.88,288.062 306.483,290.81 305.162,292.016 305.694,294.43 315.489,285.485 313.441,284.821 312.169,285.98 309.49,285.126 309.115,283.42 306.085,282.441 303.555,284.749 304.166,287.517 "
   style="fill:#000000;fill-opacity:1" />

	</g>
      <g
         transform="matrix(9.1349621,0,0,9.1349621,-1795.804,-2118.7234)"
         id="g28740"
         style="opacity:0.06694563;fill:#000000;fill-opacity:1">
		<polygon
   id="polygon28742"
   points="201.928,269.263 204.007,267.368 205.65,267.89 207.263,266.431 194.554,262.386 195.084,264.794 196.797,265.34 197.399,268.088 196.078,269.294 196.694,272.08 199.912,273.103 202.296,270.933 "
   style="fill:#000000;fill-opacity:1" />

		<polygon
   id="polygon28744"
   points="192.649,269.128 192.042,266.381 193.351,265.19 192.821,262.789 182.99,271.761 185.445,272.552 186.758,271.349 189.438,272.205 189.823,273.971 192.396,274.803 194.959,272.468 194.341,269.667 "
   style="fill:#000000;fill-opacity:1" />

		<polygon
   id="polygon28746"
   points="201.13,274.393 201.859,277.703 204.892,278.688 206.235,277.459 208.911,278.312 209.312,280.117 211.32,280.771 208.458,267.744 206.892,269.17 207.289,270.967 205.207,272.858 203.443,272.295 "
   style="fill:#000000;fill-opacity:1" />

		<polygon
   id="polygon28748"
   points="192.181,284.658 190.159,286.502 188.485,285.969 186.52,287.766 199.232,291.807 198.695,289.362 197,288.825 196.401,286.078 197.708,284.884 197.092,282.121 193.841,281.086 191.81,282.943 "
   style="fill:#000000;fill-opacity:1" />

		<polygon
   id="polygon28750"
   points="187.961,276.837 185.285,275.991 184.903,274.247 182.463,273.458 185.318,286.456 187.319,284.63 186.961,282.992 188.989,281.146 190.584,281.654 192.641,279.776 191.928,276.519 189.258,275.656 "
   style="fill:#000000;fill-opacity:1" />

		<polygon
   id="polygon28752"
   points="201.152,285.034 201.756,287.782 200.435,288.987 200.967,291.402 210.762,282.457 208.714,281.792 207.441,282.952 204.763,282.098 204.389,280.392 201.357,279.413 198.827,281.721 199.438,284.489 "
   style="fill:#000000;fill-opacity:1" />

	</g>
      <g
         transform="matrix(9.1349621,0,0,9.1349621,-1795.804,-2118.7234)"
         id="g28810"
         style="opacity:0.06694563;fill:#000000;fill-opacity:1">
		<polygon
   id="polygon28812"
   points="211.268,319.58 213.347,317.686 214.99,318.208 216.604,316.748 203.894,312.704 204.425,315.111 206.137,315.658 206.739,318.406 205.418,319.611 206.034,322.396 209.252,323.42 211.636,321.25 "
   style="fill:#000000;fill-opacity:1" />

		<polygon
   id="polygon28814"
   points="201.989,319.445 201.382,316.697 202.69,315.508 202.161,313.106 192.33,322.079 194.785,322.869 196.098,321.666 198.777,322.522 199.163,324.289 201.736,325.12 204.299,322.785 203.681,319.983 "
   style="fill:#000000;fill-opacity:1" />

		<polygon
   id="polygon28816"
   points="210.471,324.711 211.199,328.021 214.231,329.006 215.576,327.777 218.251,328.63 218.651,330.435 220.66,331.088 217.798,318.061 216.231,319.488 216.629,321.285 214.547,323.176 212.783,322.612 "
   style="fill:#000000;fill-opacity:1" />

		<polygon
   id="polygon28818"
   points="201.521,334.976 199.499,336.82 197.825,336.286 195.859,338.084 208.572,342.125 208.035,339.68 206.341,339.143 205.741,336.396 207.048,335.201 206.432,332.438 203.182,331.403 201.148,333.26 "
   style="fill:#000000;fill-opacity:1" />

		<polygon
   id="polygon28820"
   points="197.302,327.155 194.625,326.309 194.243,324.564 191.803,323.775 194.658,336.773 196.659,334.947 196.302,333.31 198.33,331.463 199.924,331.972 201.98,330.094 201.268,326.836 198.598,325.973 "
   style="fill:#000000;fill-opacity:1" />

		<polygon
   id="polygon28822"
   points="210.492,335.352 211.096,338.1 209.774,339.305 210.307,341.719 220.102,332.774 218.054,332.109 216.781,333.27 214.103,332.416 213.729,330.709 210.697,329.73 208.167,332.038 208.778,334.807 "
   style="fill:#000000;fill-opacity:1" />

	</g>
      <g
         transform="matrix(9.1349621,0,0,9.1349621,-1795.804,-2118.7234)"
         id="g28824"
         style="opacity:0.06694563;fill:#000000;fill-opacity:1">
		<polygon
   id="polygon28826"
   points="240.125,313.422 242.204,311.528 243.848,312.051 245.46,310.591 232.751,306.547 233.281,308.953 234.994,309.5 235.597,312.248 234.275,313.453 234.892,316.239 238.109,317.262 240.493,315.093 "
   style="fill:#000000;fill-opacity:1" />

		<polygon
   id="polygon28828"
   points="230.847,313.288 230.239,310.54 231.548,309.35 231.019,306.948 221.188,315.922 223.643,316.711 224.955,315.508 227.635,316.364 228.021,318.131 230.594,318.963 233.156,316.627 232.538,313.826 "
   style="fill:#000000;fill-opacity:1" />

		<polygon
   id="polygon28830"
   points="239.327,318.553 240.057,321.863 243.089,322.848 244.433,321.619 247.108,322.472 247.509,324.276 249.518,324.93 246.655,311.903 245.089,313.33 245.486,315.127 243.404,317.018 241.641,316.454 "
   style="fill:#000000;fill-opacity:1" />

		<polygon
   id="polygon28832"
   points="230.378,328.818 228.356,330.662 226.682,330.129 224.717,331.926 237.43,335.967 236.893,333.521 235.198,332.984 234.599,330.237 235.905,329.043 235.289,326.28 232.038,325.246 230.006,327.103 "
   style="fill:#000000;fill-opacity:1" />

		<polygon
   id="polygon28834"
   points="226.159,320.998 223.482,320.15 223.101,318.406 220.66,317.618 223.516,330.615 225.517,328.79 225.158,327.152 227.187,325.305 228.781,325.814 230.838,323.936 230.125,320.678 227.455,319.815 "
   style="fill:#000000;fill-opacity:1" />

		<polygon
   id="polygon28836"
   points="239.35,329.193 239.953,331.941 238.632,333.146 239.164,335.562 248.959,326.617 246.911,325.952 245.639,327.111 242.96,326.258 242.586,324.551 239.555,323.572 237.024,325.88 237.636,328.648 "
   style="fill:#000000;fill-opacity:1" />

	</g>
      <g
         transform="matrix(9.1349621,0,0,9.1349621,-1795.804,-2118.7234)"
         id="g28838"
         style="opacity:0.06694563;fill:#000000;fill-opacity:1">
		<polygon
   id="polygon28840"
   points="191.716,297.941 193.795,296.046 195.438,296.568 197.052,295.109 184.342,291.065 184.873,293.472 186.585,294.019 187.188,296.766 185.867,297.972 186.482,300.758 189.7,301.78 192.084,299.611 "
   style="fill:#000000;fill-opacity:1" />

		<polygon
   id="polygon28842"
   points="182.438,297.806 181.83,295.059 183.139,293.868 182.609,291.467 172.778,300.439 175.233,301.23 176.546,300.026 179.226,300.883 179.611,302.648 182.185,303.48 184.748,301.146 184.129,298.345 "
   style="fill:#000000;fill-opacity:1" />

		<polygon
   id="polygon28844"
   points="190.918,303.07 191.646,306.381 194.68,307.365 196.024,306.137 198.699,306.99 199.1,308.795 201.107,309.449 198.246,296.422 196.68,297.848 197.077,299.645 194.995,301.536 193.231,300.973 "
   style="fill:#000000;fill-opacity:1" />

		<polygon
   id="polygon28846"
   points="181.969,313.336 179.947,315.181 178.273,314.646 176.308,316.444 189.021,320.485 188.483,318.04 186.789,317.504 186.189,314.756 187.496,313.562 186.88,310.799 183.63,309.764 181.598,311.621 "
   style="fill:#000000;fill-opacity:1" />

		<polygon
   id="polygon28848"
   points="177.75,305.516 175.073,304.668 174.691,302.924 172.251,302.137 175.106,315.135 177.107,313.309 176.749,311.67 178.777,309.824 180.372,310.332 182.429,308.454 181.716,305.197 179.047,304.334 "
   style="fill:#000000;fill-opacity:1" />

		<polygon
   id="polygon28850"
   points="190.94,313.712 191.544,316.461 190.223,317.666 190.755,320.08 200.55,311.136 198.502,310.471 197.229,311.631 194.551,310.775 194.176,309.07 191.146,308.091 188.615,310.398 189.227,313.167 "
   style="fill:#000000;fill-opacity:1" />

	</g>
      <g
         transform="matrix(9.1349621,0,0,9.1349621,-1795.804,-2118.7234)"
         id="g28852"
         style="opacity:0.06694563;fill:#000000;fill-opacity:1">
		<polygon
   id="polygon28854"
   points="220.602,291.542 222.681,289.646 224.324,290.168 225.938,288.709 213.228,284.665 213.759,287.072 215.471,287.619 216.073,290.367 214.752,291.572 215.368,294.358 218.586,295.381 220.97,293.211 "
   style="fill:#000000;fill-opacity:1" />

		<polygon
   id="polygon28856"
   points="211.323,291.406 210.716,288.659 212.024,287.469 211.495,285.067 201.664,294.04 204.119,294.831 205.432,293.626 208.111,294.483 208.497,296.25 211.07,297.081 213.633,294.746 213.015,291.945 "
   style="fill:#000000;fill-opacity:1" />

		<polygon
   id="polygon28858"
   points="219.804,296.671 220.533,299.981 223.565,300.967 224.91,299.738 227.585,300.591 227.985,302.396 229.994,303.049 227.132,290.022 225.565,291.448 225.963,293.246 223.881,295.137 222.117,294.573 "
   style="fill:#000000;fill-opacity:1" />

		<polygon
   id="polygon28860"
   points="210.855,306.937 208.833,308.781 207.159,308.248 205.193,310.045 217.906,314.086 217.369,311.641 215.675,311.104 215.075,308.356 216.382,307.162 215.766,304.398 212.515,303.364 210.483,305.222 "
   style="fill:#000000;fill-opacity:1" />

		<polygon
   id="polygon28862"
   points="206.636,299.116 203.959,298.269 203.577,296.525 201.137,295.737 203.992,308.734 205.993,306.909 205.636,305.271 207.664,303.424 209.258,303.933 211.314,302.055 210.602,298.797 207.932,297.934 "
   style="fill:#000000;fill-opacity:1" />

		<polygon
   id="polygon28864"
   points="219.826,307.312 220.43,310.061 219.108,311.266 219.641,313.68 229.436,304.736 227.388,304.07 226.115,305.23 223.437,304.377 223.062,302.67 220.031,301.691 217.501,303.999 218.112,306.768 "
   style="fill:#000000;fill-opacity:1" />

	</g>
    </g>
    <g
       id="g2817"
       transform="matrix(1.7863806,0,0,1.7863806,-25.548103,542.28267)"
       style="fill:#21ff00;fill-opacity:1">
	<g
   id="g2819"
   style="fill:#21ff00;fill-opacity:1">
		<g
   id="g2821"
   style="fill:#21ff00;fill-opacity:1">
			<path
   id="path2823"
   d="m 113.75,81.229 9.009,8.167 v 29.683 l -9.009,8.167 H 94.501 l -9.009,-8.167 V 89.396 l 9.009,-8.167 h 19.249 z m -4.02,9.398 H 98.518 l -2.981,2.721 v 21.778 l 2.981,2.721 h 11.212 l 2.981,-2.721 V 93.348 l -2.981,-2.721 z"
   style="fill:#21ff00;fill-opacity:1" />

		</g>

		<g
   id="g2825"
   style="fill:#21ff00;fill-opacity:1">
			<path
   id="path2827"
   d="M 138.647,127.245 H 128.6 V 81.229 h 27.029 l 8.296,8.231 v 14.842 l -8.296,8.231 h -16.981 v 14.712 z m 0,-36.618 v 12.508 h 12.637 l 2.592,-2.592 v -7.324 l -2.592,-2.592 h -12.637 z"
   style="fill:#21ff00;fill-opacity:1" />

			<path
   id="path2829"
   d="m 169.763,81.229 h 31.953 v 9.398 h -21.905 v 7.907 h 19.184 v 9.396 h -19.184 v 9.917 h 21.905 v 9.398 H 169.763 V 81.229 z"
   style="fill:#21ff00;fill-opacity:1" />

			<path
   id="path2831"
   d="M 216.955,127.245 H 206.907 V 81.229 h 9.01 l 15.103,24.174 1.685,4.279 h 0.258 l -0.713,-4.343 v -24.11 h 10.047 v 46.017 h -9.009 l -15.101,-24.174 -1.688,-4.279 h -0.258 l 0.714,4.343 v 24.109 z"
   style="fill:#21ff00;fill-opacity:1" />

		</g>

		<g
   id="g2833"
   style="fill:#21ff00;fill-opacity:1">
			<path
   id="path2835"
   d="m 84.584,150.859 8.229,-8.233 h 17.047 l 9.332,3.179 -3.045,9.008 -8.167,-2.788 H 96.833 l -2.203,2.205 v 1.618 l 0.843,1.752 20.675,8.945 2.721,5.117 v 8.749 l -8.231,8.233 h -17.11 l -9.332,-3.178 3.045,-9.008 8.167,2.787 h 11.212 l 2.203,-2.204 v -1.619 l -0.843,-1.751 -20.675,-8.945 -2.721,-5.117 v -8.75 z"
   style="fill:#21ff00;fill-opacity:1" />

		</g>

		<g
   id="g2837"
   style="fill:#21ff00;fill-opacity:1">
			<path
   id="path2839"
   d="m 135.082,188.645 h -10.048 v -46.019 h 27.028 l 8.296,8.233 V 165.7 l -8.296,8.233 h -16.98 v 14.712 z m 0,-36.621 v 12.511 h 12.637 l 2.592,-2.592 v -7.327 l -2.592,-2.592 h -12.637 z"
   style="fill:#21ff00;fill-opacity:1" />

		</g>

		<g
   id="g2841"
   style="fill:#21ff00;fill-opacity:1">
			<path
   id="path2843"
   d="m 183.116,142.626 14.842,44.139 -9.463,3.175 -3.499,-10.306 h -14.584 l -3.175,10.306 -9.463,-3.175 14.843,-44.139 h 10.499 z m -4.277,17.499 -0.842,-4.793 h -0.26 l -0.842,4.793 -3.63,10.759 h 9.205 l -3.631,-10.759 z"
   style="fill:#21ff00;fill-opacity:1" />

			<path
   id="path2845"
   d="m 229.334,173.022 6.869,6.873 -8.749,8.749 H 208.27 l -8.296,-8.296 v -29.427 l 8.296,-8.296 H 227 l 8.296,8.296 v 8.559 h -10.045 v -4.864 l -2.595,-2.592 h -10.045 l -2.592,2.592 v 22.038 l 2.592,2.592 h 10.501 l 6.222,-6.224 z"
   style="fill:#21ff00;fill-opacity:1" />

			<path
   id="path2847"
   d="m 240.746,142.626 h 31.952 v 9.398 h -21.904 v 7.909 h 19.184 v 9.395 h -19.184 v 9.918 h 21.904 v 9.398 h -31.952 v -46.018 z"
   style="fill:#21ff00;fill-opacity:1" />

		</g>

		<g
   id="g2849"
   style="fill:#21ff00;fill-opacity:1">
			<path
   id="path2851"
   d="m 107.592,206.026 14.843,44.139 -9.463,3.175 -3.499,-10.306 H 94.888 l -3.175,10.306 -9.463,-3.175 14.843,-44.139 h 10.499 z m -4.277,17.499 -0.842,-4.793 h -0.26 l -0.842,4.793 -3.63,10.759 h 9.205 l -3.631,-10.759 z"
   style="fill:#21ff00;fill-opacity:1" />

		</g>

		<g
   id="g2853"
   style="fill:#21ff00;fill-opacity:1">
			<path
   id="path2855"
   d="m 150.378,206.026 14.842,44.139 -9.463,3.175 -3.499,-10.306 h -14.584 l -3.175,10.306 -9.463,-3.175 14.843,-44.139 h 10.499 z m -4.277,17.499 -0.842,-4.793 h -0.26 l -0.842,4.793 -3.63,10.759 h 9.205 l -3.631,-10.759 z"
   style="fill:#21ff00;fill-opacity:1" />

			<path
   id="path2857"
   d="m 205.475,246.6 -7.193,7.064 -18.277,-18.73 h -0.842 v 17.112 h -10.047 v -46.02 h 28.129 l 7.195,7.131 v 14.649 l -7.195,7.127 h -2.332 l -2.27,-1.103 -0.129,0.195 2.268,1.619 10.693,10.956 z m -26.313,-31.175 v 10.11 h 12.897 l 2.332,-2.396 v -5.313 l -2.332,-2.4 h -12.897 z"
   style="fill:#21ff00;fill-opacity:1" />

			<path
   id="path2859"
   d="m 235.943,206.026 h 10.047 v 46.02 h -10.047 v -18.602 h -15.229 v 18.602 h -10.048 v -46.02 h 10.048 v 18.02 h 15.229 v -18.02 z"
   style="fill:#21ff00;fill-opacity:1" />

			<path
   id="path2861"
   d="m 253.127,243.812 v -37.786 h 10.046 v 34.028 l 2.592,2.593 h 10.046 l 2.594,-2.593 v -34.028 h 10.046 v 37.786 l -8.296,8.233 h -18.73 l -8.298,-8.233 z"
   style="fill:#21ff00;fill-opacity:1" />

			<path
   id="path2863"
   d="m 293.446,214.26 8.229,-8.233 h 17.047 l 9.332,3.179 -3.045,9.008 -8.167,-2.788 h -11.148 l -2.202,2.205 v 1.619 l 0.842,1.751 20.676,8.945 2.721,5.117 v 8.75 l -8.231,8.233 h -17.11 l -9.332,-3.179 3.045,-9.008 8.167,2.788 h 11.213 l 2.203,-2.205 v -1.619 l -0.843,-1.751 -20.676,-8.945 -2.721,-5.117 v -8.75 z"
   style="fill:#21ff00;fill-opacity:1" />

		</g>

	</g>

	<g
   id="g2865"
   style="fill:#21ff00;fill-opacity:1">
		<polygon
   id="polygon2867"
   points="69.686,48.427 74.707,43.857 73.931,40.339 78.312,36.348 81.773,37.448 85.171,34.374 58.398,25.854 59.517,30.925 63.124,32.076 64.392,37.864 61.61,40.404 62.908,46.272 "
   style="fill:#21ff00;fill-opacity:1" />

		<polygon
   id="polygon2869"
   points="59.253,47.089 57.949,41.189 54.388,40.055 53.107,34.267 55.863,31.759 54.749,26.701 34.041,45.602 39.211,47.268 41.977,44.732 47.62,46.536 48.434,50.256 53.854,52.009 "
   style="fill:#21ff00;fill-opacity:1" />

		<polygon
   id="polygon2871"
   points="80.839,47.913 77.125,46.726 72.252,51.146 73.787,58.118 80.175,60.192 83.007,57.604 88.643,59.401 89.485,63.203 93.717,64.58 87.688,37.139 84.389,40.143 85.226,43.929 "
   style="fill:#21ff00;fill-opacity:1" />

		<polygon
   id="polygon2873"
   points="56.897,65.244 52.617,69.156 53.4,72.77 49.141,76.654 45.615,75.53 41.475,79.316 68.254,87.829 67.123,82.679 63.553,81.547 62.291,75.76 65.043,73.244 63.745,67.424 "
   style="fill:#21ff00;fill-opacity:1" />

		<polygon
   id="polygon2875"
   points="52.867,55.623 47.243,53.806 44.512,56.295 38.875,54.511 38.069,50.837 32.928,49.176 38.945,76.557 43.159,72.71 42.405,69.26 46.678,65.37 50.036,66.441 54.368,62.485 "
   style="fill:#21ff00;fill-opacity:1" />

		<polygon
   id="polygon2877"
   points="67.4,66.581 68.688,72.413 72.299,73.561 73.569,79.35 70.786,81.889 71.908,86.974 92.541,68.133 88.227,66.733 85.546,69.175 79.905,67.376 79.115,63.782 72.731,61.72 "
   style="fill:#21ff00;fill-opacity:1" />

	</g>

</g>
    <path
       style="fill:#21ff00;fill-opacity:1;stroke:#000000;stroke-width:16.21039009;stroke-linecap:square;stroke-linejoin:miter;stroke-miterlimit:4;stroke-opacity:1;stroke-dasharray:none;marker-start:none;marker-mid:none;marker-end:url(#TriangleOutL)"
       d="m 637.58963,1000.7121 2.84034,-600.77699"
       id="path4709" />
  </g>
</svg>
