<?xml version="1.0" encoding="utf-8"?>
<!-- Generator: Adobe Illustrator 15.0.0, SVG Export Plug-In . SVG Version: 6.00 Build 0)  -->
<!DOCTYPE svg PUBLIC "-//W3C//DTD SVG 1.1//EN" "http://www.w3.org/Graphics/SVG/1.1/DTD/svg11.dtd">
<svg version="1.1" id="Layer_1" xmlns="http://www.w3.org/2000/svg" xmlns:xlink="http://www.w3.org/1999/xlink" x="0px" y="0px"
	 width="363px" height="285px" viewBox="0 0 363 285" enable-background="new 0 0 363 285" xml:space="preserve">
<g>
	<polygon fill="#ACD58A" points="170.841,69.919 180.942,73.143 184.495,89.353 176.704,96.467 180.339,112.901 199.319,118.935 
		213.382,106.138 211.21,96.284 223.478,85.107 233.173,88.187 242.687,79.579 167.709,55.718 	"/>
	<polygon fill="#ACD58A" points="113.973,115.688 121.718,108.586 137.523,113.64 139.801,124.058 154.982,128.966 170.103,115.188 
		166.45,98.664 156.477,95.489 152.891,79.279 160.608,72.256 157.488,58.09 99.493,111.023 	"/>
	<polygon fill="#ACD58A" points="254.771,160.315 266.622,164.171 249.737,87.321 240.498,95.735 242.841,106.337 230.556,117.494 
		220.153,114.171 206.507,126.548 210.805,146.075 228.695,151.885 236.626,144.636 252.409,149.669 	"/>
	<polygon fill="#ACD58A" points="192.142,214.859 182.146,211.689 178.608,195.482 186.317,188.438 182.683,172.138 
		163.505,166.032 151.517,176.987 153.711,187.109 141.783,197.987 131.907,194.84 120.312,205.443 195.312,229.281 	"/>
	<polygon fill="#ACD58A" points="125.03,186.942 122.917,177.28 134.884,166.386 144.29,169.386 156.422,158.307 152.217,139.088 
		136.468,133.999 128.819,140.972 113.031,135.974 110.776,125.685 96.377,121.033 113.228,197.714 	"/>
	<polygon fill="#ACD58A" points="251.245,170.202 243.739,177.042 227.938,172.003 225.728,161.938 207.849,156.162 
		192.919,169.776 196.526,186.11 206.638,189.323 210.196,205.536 202.401,212.648 205.544,226.889 263.326,174.124 	"/>
</g>
</svg>
